<svg width="30" height="30" viewBox="0 0 30 30" fill="none" xmlns="http://www.w3.org/2000/svg">
<path d="M27.5928 19.6916C25.7561 19.6916 23.9527 19.4043 22.2437 18.8396C21.4062 18.5539 20.3768 18.816 19.8657 19.3409L16.4925 21.8873C12.5805 19.7991 10.1709 17.3902 8.11117 13.5076L10.5827 10.2223C11.2248 9.58105 11.4551 8.64433 11.1791 7.76542C10.612 6.04745 10.3238 4.24487 10.3238 2.40737C10.3239 1.07995 9.24398 3.05176e-05 7.91664 3.05176e-05H2.40727C1.07992 3.05176e-05 0 1.07995 0 2.4073C0 17.6221 12.378 30 27.5928 30C28.9202 30 30.0001 28.9201 30.0001 27.5928V22.0988C30 20.7715 28.9201 19.6916 27.5928 19.6916Z" fill="white"/>
</svg>
