<svg width="100" height="100" viewBox="0 0 100 100" fill="none" xmlns="http://www.w3.org/2000/svg">
<path d="M76.0188 29.0196C76.1436 27.9906 76.2274 26.9503 76.2274 25.8872C76.2274 11.6128 64.6147 0 50.3418 0C36.0665 0 24.4544 11.6128 24.4544 25.8872C24.4544 26.9503 24.5382 27.9923 24.6624 29.0217C12.7932 37.1981 5 50.8685 5 66.3728C5 76.9981 8.67532 86.7429 14.8046 94.4615C17.5834 97.9627 21.811 100 26.2815 100H74.4003C78.8639 100 83.1012 97.9579 85.8766 94.4615C92.0061 86.7429 95.6814 76.9981 95.6814 66.3728C95.6816 50.8683 87.8879 37.196 76.0188 29.0196ZM50.3418 9.92585C58.4629 9.92585 65.1109 16.0452 66.1011 23.9047C61.1853 22.0793 55.8925 21.0327 50.3418 21.0327C44.7905 21.0327 39.4963 22.0793 34.5807 23.9047C35.569 16.0452 42.2187 9.92585 50.3418 9.92585Z" fill="white"/>
<path d="M60.5859 61.148C58.4017 61.148 56.6185 63.1335 56.6185 66.665C56.6185 69.5617 58.0463 71.8234 60.5859 71.8234C62.1336 71.8234 63.3615 70.7909 63.7584 69.3625C63.917 68.9263 63.9591 68.2917 63.9591 67.7748V64.9185C63.9591 64.5208 63.917 64.1254 63.8393 63.807C63.4034 62.2205 62.253 61.148 60.5859 61.148Z" fill="white"/>
<g clip-path="url(#clip0)">
<path d="M70.8891 46.0411L62.8839 42.706C62.0057 42.3403 60.9986 42.3404 60.1205 42.7061L56.277 44.307C55.9335 44.4503 55.7709 44.8447 55.914 45.1882C56.0572 45.5318 56.4516 45.6944 56.7952 45.5512L60.6388 43.9502C61.1872 43.7216 61.8168 43.7215 62.3657 43.9501L70.3705 47.285C71.1491 47.6098 71.6523 48.3401 71.6523 49.1454V77.9628C71.6523 79.0834 70.6898 79.9951 69.5069 79.9951H68.4144C68.0421 79.9951 67.7405 80.2967 67.7405 80.6689C67.7405 81.0411 68.0421 81.3427 68.4144 81.3427H69.5069C71.4329 81.3427 73 79.8265 73 77.9628V49.1454C73 47.7945 72.1714 46.5761 70.8891 46.0411Z" fill="#5283B8"/>
<path d="M65.4774 79.9951H54.1553C54.6215 79.4652 54.8767 78.7929 54.8767 78.0815C54.8767 77.3714 54.6197 76.7207 54.1944 76.2161C54.4625 76.0793 54.7109 75.9002 54.9301 75.6811C55.4774 75.1337 55.7788 74.4059 55.7788 73.6315C55.7788 72.8933 55.501 72.2192 55.045 71.7069C55.2708 71.579 55.481 71.4205 55.6693 71.232C56.2166 70.6848 56.5181 69.957 56.5181 69.1824C56.5181 68.4464 56.242 67.774 55.7886 67.2621C56.0182 67.1333 56.232 66.9728 56.4237 66.7815C56.9707 66.2333 57.2719 65.5057 57.2719 64.7324C57.2719 63.1337 55.9716 61.8331 54.3734 61.8331H51.352V49.1454C51.352 48.34 51.8552 47.6097 52.6334 47.2851L53.859 46.7748C54.2025 46.6318 54.3651 46.2373 54.222 45.8937C54.0789 45.5501 53.6845 45.3873 53.3409 45.5306L52.1149 46.0411C50.8328 46.576 50.0043 47.7945 50.0043 49.1454V61.8332H47.1889C48.1264 58.8705 48.0466 55.7786 46.9525 52.1899C46.7863 51.6465 46.4557 51.181 45.9961 50.8438C45.5393 50.5087 44.9979 50.3314 44.4303 50.3314C43.6992 50.3314 43.0193 50.6234 42.5158 51.1536C42.0126 51.6837 41.7564 52.3776 41.7943 53.1075C42.005 57.1592 40.1361 58.5537 37.5494 60.484C36.6977 61.1195 35.767 61.8145 34.8522 62.6669V61.7837C34.8522 61.4115 34.5506 61.1099 34.1783 61.1099H27.6738C27.3016 61.1099 27 61.4115 27 61.7837V80.8944C27 81.2666 27.3016 81.5682 27.6738 81.5682H34.1785C34.5507 81.5682 34.8523 81.2666 34.8523 80.8944V79.1992C36.1322 79.321 37.0669 79.576 37.975 80.272C38.5712 80.729 39.3062 80.9806 40.0444 80.9806H51.9281C52.4137 81.2173 52.9519 81.3427 53.4975 81.3427H65.4773C65.8495 81.3427 66.1511 81.0411 66.1511 80.6689C66.1511 80.2967 65.8495 79.9951 65.4774 79.9951ZM38.7949 79.2024C37.5243 78.2287 36.1664 77.9582 34.8523 77.8447V69.9767C34.8523 69.6044 34.5507 69.3028 34.1785 69.3028C33.8063 69.3028 33.5047 69.6044 33.5047 69.9767V80.2206H28.3477V62.4576H33.5047V67.0407C33.5047 67.4129 33.8063 67.7145 34.1785 67.7145C34.5507 67.7145 34.8523 67.4129 34.8523 67.0407V64.5812C35.9795 63.3373 37.1865 62.4366 38.3555 61.5642C40.9438 59.6329 43.3885 57.8085 43.1404 53.0376C43.1218 52.6805 43.2472 52.341 43.4935 52.0816C43.7399 51.822 44.0726 51.6792 44.4306 51.6792C44.7094 51.6792 44.975 51.7661 45.199 51.9305C45.4226 52.0945 45.5834 52.3206 45.6639 52.5837C46.7782 56.239 46.7608 59.3144 45.609 62.262C45.5279 62.4694 45.5546 62.7034 45.6801 62.8873C45.8056 63.0712 46.0139 63.1812 46.2365 63.1812H54.3736C55.2287 63.1812 55.9244 63.8772 55.9244 64.7327C55.9244 65.1465 55.7629 65.5361 55.4709 65.8289C55.1771 66.122 54.7875 66.2835 54.3736 66.2835H51.6055C51.2333 66.2835 50.9317 66.5851 50.9317 66.9573C50.9317 67.3295 51.2333 67.6311 51.6055 67.6311H53.6198C54.4748 67.6311 55.1705 68.3271 55.1705 69.1828C55.1705 69.5973 55.0093 69.9867 54.7164 70.2795C54.4237 70.5723 54.0343 70.7335 53.6198 70.7335H51.6055C51.2333 70.7335 50.9317 71.0351 50.9317 71.4073C50.9317 71.7796 51.2333 72.0812 51.6055 72.0812H52.8803C53.7354 72.0812 54.4311 72.7768 54.4311 73.6319C54.4311 74.0462 54.2698 74.4358 53.9771 74.7286C53.6837 75.022 53.2941 75.1835 52.8803 75.1835H51.9783H50.866C50.4938 75.1835 50.1922 75.4851 50.1922 75.8573C50.1922 76.2295 50.4938 76.5311 50.866 76.5311H51.9783C52.8334 76.5311 53.5291 77.2268 53.5291 78.0818C53.5291 78.4962 53.3676 78.8861 53.0756 79.1788C52.802 79.4519 52.3696 79.6261 52.0461 79.6318C52.0237 79.6322 40.0444 79.6334 40.0444 79.6334C39.6009 79.633 39.1571 79.4801 38.7949 79.2024Z" fill="#5283B8"/>
<path d="M63.934 49.4447C63.934 48.0288 62.7821 46.8768 61.3661 46.8768C59.9502 46.8768 58.7982 48.0288 58.7982 49.4447C58.7982 50.8607 59.9502 52.0127 61.3661 52.0127C62.7821 52.0127 63.934 50.8607 63.934 49.4447ZM60.1459 49.4447C60.1459 48.7719 60.6933 48.2245 61.3661 48.2245C62.039 48.2245 62.5864 48.7719 62.5864 49.4447C62.5864 50.1176 62.039 50.665 61.3661 50.665C60.6933 50.665 60.1459 50.1177 60.1459 49.4447Z" fill="#5283B8"/>
<path d="M61.7872 72.4367H60.5787C59.9421 72.4367 59.4243 71.9187 59.4243 71.2822C59.4243 70.91 59.1227 70.6084 58.7505 70.6084C58.3782 70.6084 58.0766 70.91 58.0766 71.2822C58.0766 72.6386 59.1616 73.7454 60.5091 73.7825V75.2738C60.5091 75.646 60.8107 75.9476 61.1829 75.9476C61.5551 75.9476 61.8567 75.646 61.8567 75.2738V73.7825C63.2043 73.7454 64.2892 72.6386 64.2892 71.2822V70.3493C64.2892 69.4839 63.7362 68.7228 62.9131 68.4553L59.8692 67.4665C59.6031 67.38 59.4243 67.134 59.4243 66.8542V65.5185C59.4243 65.0016 59.8448 64.5809 60.3618 64.5809H62.0041C62.5211 64.5809 62.9417 65.0016 62.9417 65.5185C62.9417 65.8908 63.2433 66.1924 63.6155 66.1924C63.9877 66.1924 64.2893 65.8908 64.2893 65.5185C64.2893 64.2585 63.2642 63.2333 62.0041 63.2333H61.8567V61.7438C61.8567 61.3716 61.5551 61.07 61.1829 61.07C60.8107 61.07 60.5091 61.3716 60.5091 61.7438V63.2333H60.3617C59.1017 63.2333 58.0765 64.2584 58.0765 65.5185V66.8542C58.0765 67.7197 58.6295 68.4808 59.4527 68.7482L62.4965 69.737C62.7627 69.8235 62.9415 70.0696 62.9415 70.3493V71.2822C62.9417 71.9187 62.4237 72.4367 61.7872 72.4367Z" fill="#5283B8"/>
</g>
<defs>
<clipPath id="clip0">
<rect width="46" height="46" fill="white" transform="translate(27 39)"/>
</clipPath>
</defs>
</svg>
