<svg width="100" height="100" viewBox="0 0 100 100" fill="none" xmlns="http://www.w3.org/2000/svg">
<path d="M76.0188 29.0196C76.1436 27.9906 76.2274 26.9503 76.2274 25.8872C76.2274 11.6128 64.6147 0 50.3418 0C36.0665 0 24.4544 11.6128 24.4544 25.8872C24.4544 26.9503 24.5382 27.9923 24.6624 29.0217C12.7932 37.1981 5 50.8685 5 66.3728C5 76.9981 8.67532 86.7429 14.8046 94.4615C17.5834 97.9627 21.811 100 26.2815 100H74.4003C78.8639 100 83.1012 97.9579 85.8766 94.4615C92.0061 86.7429 95.6814 76.9981 95.6814 66.3728C95.6816 50.8683 87.8879 37.196 76.0188 29.0196ZM50.3418 9.92585C58.4629 9.92585 65.1109 16.0452 66.1011 23.9047C61.1853 22.0793 55.8925 21.0327 50.3418 21.0327C44.7905 21.0327 39.4963 22.0793 34.5807 23.9047C35.569 16.0452 42.2187 9.92585 50.3418 9.92585Z" fill="white"/>
<path d="M60.5859 61.148C58.4017 61.148 56.6185 63.1335 56.6185 66.665C56.6185 69.5617 58.0463 71.8234 60.5859 71.8234C62.1336 71.8234 63.3615 70.7909 63.7584 69.3625C63.917 68.9263 63.9591 68.2917 63.9591 67.7748V64.9185C63.9591 64.5208 63.917 64.1254 63.8393 63.807C63.4034 62.2205 62.253 61.148 60.5859 61.148Z" fill="white"/>
<path d="M71.1037 84.8049L63.4464 71.5436C66.4408 68.2925 68.2375 63.9719 68.2375 59.2235C68.2375 54.1757 66.1842 49.6412 62.8903 46.3473C59.5963 43.0534 55.0619 41 50.014 41C44.9662 41 40.4317 43.0534 37.1378 46.3473C33.8439 49.6412 31.7905 54.1757 31.7905 59.2235C31.7905 63.9719 33.5872 68.2925 36.5817 71.5436L28.9244 84.8049C28.796 85.0188 28.7533 85.3182 28.8388 85.6176C29.0099 86.0882 29.5233 86.3021 29.9938 86.131L36.1111 83.6926L37.0522 90.2377C37.095 90.4944 37.2233 90.751 37.48 90.8794C37.9078 91.136 38.4639 90.9649 38.7206 90.5371L46.4634 77.1476C47.5757 77.3615 48.7735 77.4898 49.9285 77.4898C51.1263 77.4898 52.2813 77.3615 53.3935 77.1476L61.1364 90.5371C61.393 90.9649 61.9491 91.0933 62.3769 90.8794C62.6336 90.751 62.7619 90.4944 62.8047 90.2377L63.7458 83.6926L69.8631 86.131C70.3337 86.3021 70.847 86.0882 71.0181 85.6176C71.2748 85.3182 71.232 85.0188 71.1037 84.8049ZM38.5495 87.3716L37.7795 82.2809C37.6939 81.8104 37.2661 81.4682 36.7528 81.5109C36.6672 81.5109 36.5817 81.5537 36.4961 81.5965L31.7477 83.4787L37.9078 72.827C39.8328 74.5381 42.1428 75.8642 44.7095 76.6342L38.5495 87.3716ZM50.014 75.6503C45.4795 75.6503 41.3728 73.8109 38.4211 70.8592C35.4694 67.9075 33.63 63.8008 33.63 59.2663C33.63 54.7318 35.4694 50.6251 38.4211 47.6734C41.3728 44.6361 45.4795 42.7967 50.014 42.7967C54.5485 42.7967 58.6552 44.6361 61.6069 47.5878C64.5586 50.5395 66.3981 54.6462 66.3981 59.1807C66.3981 63.7152 64.5586 67.8219 61.6069 70.7736C58.6552 73.8109 54.5485 75.6503 50.014 75.6503ZM63.5319 81.5965C63.4464 81.5537 63.3608 81.5109 63.2753 81.5109C62.8047 81.4254 62.3341 81.7676 62.2486 82.2809L61.4786 87.3716L55.3185 76.6342C57.8852 75.8642 60.1952 74.5381 62.1203 72.827L68.2803 83.4787L63.5319 81.5965Z" fill="#5283B8"/>
<path d="M58.3986 56.058C58.1847 55.7585 57.928 55.5446 57.6286 55.4163C57.3291 55.288 56.9869 55.2024 56.6447 55.2452H53.0941L51.9818 51.7374C51.8107 51.224 51.4257 50.7962 50.9979 50.5396C50.6985 50.4112 50.399 50.3257 50.0568 50.3257C49.7146 50.3257 49.4151 50.4112 49.1157 50.5396C48.6451 50.7962 48.3029 51.1812 48.1318 51.7374L47.0196 55.2452H43.469C43.1267 55.2024 42.7845 55.288 42.4851 55.4163C42.1856 55.5446 41.929 55.7585 41.7151 56.058C41.3728 56.5285 41.2873 57.0419 41.3728 57.5552C41.4584 58.0685 41.7151 58.5391 42.1856 58.8813L45.1801 61.0202L44.0251 64.528C44.0251 64.5708 44.0251 64.6136 43.9823 64.6136C43.8968 64.8703 43.8968 65.1697 43.9395 65.4692C43.9823 65.7686 44.1106 66.0681 44.3245 66.3247C44.6668 66.7953 45.1373 67.052 45.6507 67.1375C46.164 67.2231 46.7201 67.0947 47.1479 66.7525L50.1424 64.5708L53.1368 66.7525C53.6074 67.0947 54.1207 67.1803 54.6341 67.1375C55.1474 67.052 55.618 66.7953 55.9602 66.3247C56.1741 66.0681 56.2597 65.7686 56.3452 65.4692C56.388 65.1697 56.388 64.913 56.3024 64.6136C56.3024 64.5708 56.3024 64.528 56.2597 64.528L55.1046 61.0202L58.0991 58.8813C58.5697 58.5391 58.8263 58.0685 58.9119 57.5552C58.8691 57.0846 58.7408 56.5285 58.3986 56.058ZM56.9013 57.4269L56.8585 57.4696L53.3935 59.9936C53.0941 60.2074 52.923 60.6352 53.0513 60.9775L54.3774 65.0414V65.0842C54.3774 65.1269 54.3774 65.1697 54.3774 65.2125C54.3774 65.2553 54.3774 65.298 54.3346 65.298C54.2919 65.3408 54.2491 65.3836 54.1635 65.3836C54.1207 65.3836 54.0352 65.3836 53.9924 65.3408L50.4846 62.7741C50.3135 62.6458 50.1424 62.603 49.9285 62.603C49.7574 62.603 49.5435 62.6458 49.3724 62.7741L45.8645 65.3408C45.8218 65.3836 45.7362 65.3836 45.6934 65.3836C45.6507 65.3836 45.5651 65.3408 45.5223 65.298C45.4795 65.2553 45.4795 65.2125 45.4795 65.2125C45.4795 65.1697 45.4795 65.1269 45.4795 65.0842V65.0414L46.8057 60.9775C46.934 60.5924 46.8057 60.2074 46.4634 59.9936L43.1695 57.4696L43.1267 57.4269C43.084 57.3841 43.0412 57.3413 43.0412 57.2985C43.0412 57.2557 43.0412 57.1702 43.084 57.1274C43.084 57.1274 43.084 57.0846 43.1267 57.0846C43.1695 57.0419 43.1695 57.0419 43.2123 57.0419C43.2551 57.0419 43.2979 56.9991 43.3406 56.9991C43.3834 56.9991 43.4262 56.9991 43.469 56.9991H47.6612C48.0462 56.9991 48.3885 56.7424 48.5168 56.3574L49.8429 52.2507C49.8429 52.2079 49.8857 52.1224 49.9713 52.1224C50.014 52.1224 50.0568 52.0796 50.0568 52.0796C50.0996 52.0796 50.1424 52.0796 50.1424 52.1224C50.1851 52.1651 50.2279 52.2079 50.2707 52.2507L51.5968 56.3574C51.7252 56.6996 52.0674 56.9991 52.4524 56.9991H56.6447C56.6874 56.9991 56.7302 56.9991 56.773 56.9991C56.8158 56.9991 56.8585 56.9991 56.9013 57.0419C56.9441 57.0419 56.9441 57.0846 56.9869 57.0846C56.9869 57.0846 56.9869 57.1274 57.0297 57.1274C57.0724 57.1702 57.0724 57.213 57.0724 57.2985C56.9869 57.3413 56.9441 57.3841 56.9013 57.4269Z" fill="#5283B8"/>
<path d="M60.0669 49.1706C57.5002 46.6039 53.9496 45.0211 50.014 45.0211C46.0784 45.0211 42.5278 46.6039 39.9611 49.1706C37.3944 51.7373 35.8116 55.2879 35.8116 59.2235C35.8116 63.1591 37.3944 66.7097 39.9611 69.2763C42.5278 71.843 46.0784 73.4258 50.014 73.4258C53.9496 73.4258 57.5002 71.843 60.0669 69.2763C62.6336 66.7097 64.2164 63.1591 64.2164 59.2235C64.2164 55.2879 62.6336 51.7373 60.0669 49.1706ZM58.8263 67.993C56.5591 70.2602 53.4363 71.6291 50.014 71.6291C46.5917 71.6291 43.4689 70.2175 41.2445 67.993C38.9772 65.7258 37.6083 62.6457 37.6083 59.2235C37.6083 55.8012 39.02 52.6784 41.2445 50.4539C43.4689 48.1867 46.5917 46.775 50.014 46.775C53.4363 46.775 56.5591 48.1867 58.7835 50.4112C61.0508 52.6784 62.4197 55.7584 62.4197 59.1807C62.4197 62.603 61.0508 65.7685 58.8263 67.993Z" fill="#5283B8"/>
</svg>
