<svg width="100" height="100" viewBox="0 0 100 100" fill="none" xmlns="http://www.w3.org/2000/svg">
<path d="M76.0188 29.0196C76.1436 27.9906 76.2274 26.9503 76.2274 25.8872C76.2274 11.6128 64.6147 0 50.3418 0C36.0665 0 24.4544 11.6128 24.4544 25.8872C24.4544 26.9503 24.5382 27.9923 24.6624 29.0217C12.7932 37.1981 5 50.8685 5 66.3728C5 76.9981 8.67532 86.7429 14.8046 94.4615C17.5834 97.9627 21.811 100 26.2815 100H74.4003C78.8639 100 83.1012 97.9579 85.8766 94.4615C92.0061 86.7429 95.6814 76.9981 95.6814 66.3728C95.6816 50.8683 87.8879 37.196 76.0188 29.0196ZM50.3418 9.92585C58.4629 9.92585 65.1109 16.0452 66.1011 23.9047C61.1853 22.0793 55.8925 21.0327 50.3418 21.0327C44.7905 21.0327 39.4963 22.0793 34.5807 23.9047C35.569 16.0452 42.2187 9.92585 50.3418 9.92585Z" fill="white"/>
<path d="M60.5859 61.148C58.4017 61.148 56.6185 63.1335 56.6185 66.665C56.6185 69.5617 58.0463 71.8234 60.5859 71.8234C62.1336 71.8234 63.3615 70.7909 63.7584 69.3625C63.917 68.9263 63.9591 68.2917 63.9591 67.7748V64.9185C63.9591 64.5208 63.917 64.1254 63.8393 63.807C63.4034 62.2205 62.253 61.148 60.5859 61.148Z" fill="white"/>
<g clip-path="url(#clip0)">
<path d="M68.7616 46.9112L65.7351 48.9069L63.6345 45.7214C62.9999 44.759 61.7006 44.4922 60.738 45.1269L58.6865 46.4797C58.5241 46.5868 58.3832 46.7141 58.2615 46.8541L57.8378 46.2116C57.2031 45.2491 55.9038 44.9824 54.9412 45.6171L51.5523 47.8518C50.5898 48.4864 49.8981 50.3753 50.5328 51.3379L53.805 56.5171L41.1338 64.0999L37.8616 58.9207C37.2269 57.9582 35.4369 58.4783 34.4743 59.1131L31.0854 61.3477C30.1229 61.9824 29.8561 63.2817 30.4908 64.2443L30.9145 64.8868C30.7378 64.9436 30.5653 65.0229 30.403 65.13L28.3516 66.4826C27.3891 67.1173 27.1224 68.4166 27.7571 69.3792L29.8576 72.5646L26.8309 74.5604C26.4782 74.793 26.3809 75.2674 26.6134 75.6201L29.8779 80.5707C30.1104 80.9234 30.5848 81.0208 30.9375 80.7882L33.9642 78.7924L36.0647 81.9779C36.6994 82.9403 37.9987 83.2071 38.9613 82.5724L41.0127 81.2197C41.1751 81.1126 41.3159 80.9852 41.4377 80.8452L41.8614 81.4878C42.496 82.4502 43.7954 82.717 44.7579 82.0823L48.1469 79.8476C49.1093 79.213 49.8668 77.1266 49.2321 76.1642L45.5902 70.9849L58.2615 63.4021L61.9034 68.5813C62.5381 69.5438 64.2625 69.2209 65.2249 68.5863L68.6139 66.3516C69.5764 65.7169 69.8431 64.4176 69.2084 63.455L68.7847 62.8125C68.9615 62.7557 69.1339 62.6764 69.2963 62.5694L71.3478 61.2166C72.3103 60.5819 72.5771 59.2826 71.9423 58.32L69.8418 55.1346L72.8684 53.1388C73.2211 52.9062 73.3184 52.4318 73.0859 52.0792L69.8215 47.1286C69.5887 46.776 69.1144 46.6786 68.7616 46.9112ZM33.122 77.5152L30.734 79.0899L28.3118 75.4165L30.6998 73.8418L33.122 77.5152ZM39.9994 79.241C40.1696 79.4992 40.0981 79.8478 39.8399 80.0181L38.1191 81.2952C37.8609 81.4655 37.5123 81.394 37.342 81.1357L34.8204 77.3116L31.5559 72.361L29.0343 68.5369C28.864 68.2786 28.9356 67.93 29.1938 67.7598L30.9145 66.4826C31.1728 66.3123 31.5213 66.3839 31.6916 66.6421L39.9994 79.241ZM40.1467 66.6964L43.4111 71.647L47.4641 77.7933C47.6343 78.0516 47.5627 78.4002 47.3046 78.5704L44.1882 80.7302C43.93 80.9004 43.5814 80.8289 43.4111 80.5707L41.8797 78.2483L33.572 65.6495L32.0406 63.3271C31.8704 63.0689 31.942 62.7203 32.2001 62.5501L35.3165 60.3903C35.5747 60.2201 35.9233 60.2916 36.0936 60.5498L40.1467 66.6964ZM57.4292 61.7964L44.7579 69.3792L42.3357 65.7057L55.0069 58.1229L57.4292 61.7964ZM57.8194 49.4507L66.1272 62.0496L67.1961 63.6295C67.3664 63.8878 67.2947 64.2364 67.0366 64.4066L63.9201 66.5666C63.662 66.7368 63.3133 66.6653 63.1431 66.4071L59.5526 61.0032L56.2882 56.0526L52.4836 50.2278C52.3133 49.9696 52.3849 49.621 52.6431 49.4507L55.7595 47.2908C56.0177 47.1206 56.3663 47.192 56.5366 47.4503L57.8194 49.4507ZM64.879 50.3877L68.1434 55.3383L70.6651 59.1624C70.8353 59.4206 70.7637 59.7692 70.5056 59.9395L68.7616 61.0032C68.5035 61.1734 68.1548 61.1019 67.9846 60.8437L59.6768 48.2448C59.5065 47.9866 59.5782 47.638 59.8363 47.4677L61.5802 46.404C61.8384 46.2338 62.187 46.3053 62.3573 46.5635L64.879 50.3877ZM71.3874 52.2829L68.9995 53.8575L66.5772 50.1841L68.9651 48.6095L71.3874 52.2829Z" fill="#5283B8"/>
</g>
<defs>
<clipPath id="clip0">
<rect width="51.7561" height="51.7561" fill="white" transform="translate(14 56.4915) rotate(-33.401)"/>
</clipPath>
</defs>
</svg>
