<svg width="100" height="100" viewBox="0 0 100 100" fill="none" xmlns="http://www.w3.org/2000/svg">
<path d="M75.6779 29.0196C75.8028 27.9906 75.8866 26.9503 75.8866 25.8872C75.8866 11.6128 64.2738 0 50.001 0C35.7257 0 24.1136 11.6128 24.1136 25.8872C24.1136 26.9503 24.1974 27.9923 24.3216 29.0217C12.4524 37.1981 4.65918 50.8685 4.65918 66.3728C4.65918 76.9981 8.3345 86.7429 14.4637 94.4615C17.2426 97.9627 21.4701 100 25.9407 100H74.0595C78.5231 100 82.7603 97.9579 85.5358 94.4615C91.6652 86.7429 95.3405 76.9981 95.3405 66.3728C95.3408 50.8683 87.5471 37.196 75.6779 29.0196ZM50.001 9.92585C58.1221 9.92585 64.7701 16.0452 65.7603 23.9047C60.8444 22.0793 55.5517 21.0327 50.001 21.0327C44.4497 21.0327 39.1555 22.0793 34.2399 23.9047C35.2282 16.0452 41.8779 9.92585 50.001 9.92585Z" fill="white"/>
<path d="M60.245 61.148C58.0608 61.148 56.2777 63.1335 56.2777 66.665C56.2777 69.5617 57.7054 71.8234 60.245 71.8234C61.7928 71.8234 63.0207 70.7909 63.4176 69.3625C63.5761 68.9263 63.6182 68.2917 63.6182 67.7748V64.9185C63.6182 64.5208 63.5761 64.1254 63.4984 63.807C63.0626 62.2205 61.9121 61.148 60.245 61.148Z" fill="white"/>
<path d="M52.1383 68.04V72H36.2683V68.85L44.3683 61.2C45.2283 60.38 45.8083 59.68 46.1083 59.1C46.4083 58.5 46.5583 57.91 46.5583 57.33C46.5583 56.49 46.2683 55.85 45.6883 55.41C45.1283 54.95 44.2983 54.72 43.1983 54.72C42.2783 54.72 41.4483 54.9 40.7083 55.26C39.9683 55.6 39.3483 56.12 38.8483 56.82L35.3083 54.54C36.1283 53.32 37.2583 52.37 38.6983 51.69C40.1383 50.99 41.7883 50.64 43.6483 50.64C45.2083 50.64 46.5683 50.9 47.7283 51.42C48.9083 51.92 49.8183 52.64 50.4583 53.58C51.1183 54.5 51.4483 55.59 51.4483 56.85C51.4483 57.99 51.2083 59.06 50.7283 60.06C50.2483 61.06 49.3183 62.2 47.9383 63.48L43.1083 68.04H52.1383ZM62.2436 51V72H57.3836V54.9H53.1836V51H62.2436Z" fill="#5283B8"/>
</svg>
