<svg width="70" height="62" viewBox="0 0 70 62" fill="none" xmlns="http://www.w3.org/2000/svg">
<rect width="70" height="62" fill="#00B2FF"/>
<g clip-path="url(#clip0)">
<path d="M54.2281 23.2745L45.7843 20.4209C45.4778 20.3177 45.1452 20.4818 45.0415 20.7884C44.9379 21.095 45.1025 21.4276 45.409 21.5312L53.7723 24.3577L49.8355 26.2769C49.6721 26.1667 49.4886 26.0821 49.2897 26.0301L37.4816 22.9441C37.1063 21.0131 34.7288 20.2026 33.2685 21.5769C32.7631 22.0525 32.4732 22.7233 32.4732 23.4171V23.4299C32.4773 24.2469 33.1536 24.9116 33.9807 24.9116H36.0194C36.5459 24.9116 37.0724 24.6369 37.3454 24.1197L48.3573 26.9977C44.8778 28.6941 37.0669 32.5022 36.0712 32.9877C35.3684 33.3303 34.5853 33.3078 33.9288 32.9877L16.2276 24.3577L34.2173 18.2778C34.7219 18.1071 35.278 18.1071 35.7826 18.2778L42.8062 20.6516C43.1129 20.7551 43.4453 20.5908 43.549 20.2841C43.6526 19.9775 43.4881 19.6449 43.1815 19.5413L36.1579 17.1675C35.4111 16.9152 34.5888 16.9152 33.842 17.1675L15.7718 23.2745C14.8117 23.5992 14.725 24.9289 15.6375 25.3737L24.9114 29.8951C24.4012 32.3206 23.6222 34.9319 22.7756 37.2497C22.429 38.1976 22.7276 39.252 23.5185 39.8736C26.1948 41.9771 29.357 43.6021 32.598 44.6466C34.1211 45.1373 35.8194 45.1562 37.4015 44.6466C40.6436 43.6016 43.8061 41.976 46.481 39.8736C47.2748 39.2496 47.5693 38.1947 47.2239 37.2497C46.3952 34.9834 45.6056 32.355 45.0882 29.8953L49.4505 27.7686V36.5878C48.7049 36.6449 48.1154 37.2685 48.1154 38.0285V39.7361C48.1154 39.9897 48.2255 40.2176 48.3998 40.3764L48.1821 43.6674C48.1396 44.3103 48.6508 44.8567 49.2954 44.8567H50.7778C51.422 44.8567 51.9335 44.3105 51.891 43.6674L51.6734 40.3764C51.8476 40.2176 51.9578 39.9898 51.9578 39.7361V38.0284C51.9578 37.2684 51.3681 36.6449 50.6225 36.5877V27.7558C50.6225 27.5757 50.5942 27.4013 50.5436 27.2356L54.3624 25.3738C55.2737 24.9295 55.1898 23.5997 54.2281 23.2745ZM36.0194 23.7396H33.9807C33.7997 23.7396 33.646 23.5951 33.6451 23.427V23.4171C33.6451 23.0396 33.7966 22.6892 34.0717 22.4303C34.9155 21.6361 36.2984 22.2078 36.3532 23.35C36.3662 23.6235 36.1901 23.7396 36.0194 23.7396ZM45.4635 35.7434C42.2975 38.2212 37.8046 39.9937 36.257 40.2887C35.9391 40.3494 35.7306 40.6563 35.7912 40.9741C35.8518 41.2921 36.1596 41.5006 36.4766 41.4399C38.0953 41.1312 42.5305 39.4076 45.86 36.916C45.9419 37.1495 46.0367 37.4154 46.1232 37.652C46.2951 38.1224 46.1478 38.6447 45.7569 38.9522C42.6012 41.4322 39.2759 42.8111 37.0421 43.5309C35.7078 43.961 34.2585 43.9504 32.9575 43.5309C30.7236 42.811 27.3984 41.4322 24.2427 38.9522C23.8518 38.6449 23.7043 38.1226 23.8764 37.6519C23.8799 37.6426 23.8832 37.633 23.8867 37.6237C23.9718 37.3904 24.0662 37.1256 24.1396 36.9158C27.3904 39.3478 31.8135 41.1141 33.5225 41.4401C33.8408 41.5006 34.1473 41.2922 34.2079 40.9744C34.2685 40.6565 34.06 40.3496 33.7422 40.289C32.2812 40.0104 27.7728 38.2754 24.5361 35.7433C25.012 34.288 25.5634 32.4177 25.9969 30.4243L33.4151 34.041C34.4028 34.5225 35.5585 34.5414 36.5848 34.041L44.0026 30.4245C44.4361 32.4178 44.9875 34.2881 45.4635 35.7434ZM49.3554 43.6847L49.5592 40.6034H50.5138L50.7175 43.6847H49.3554ZM50.7858 38.0283V39.4314H49.2873V38.0283C49.2873 37.8796 49.4129 37.754 49.5616 37.754H50.5114C50.66 37.7541 50.7858 37.8796 50.7858 38.0283Z" fill="white"/>
</g>
<defs>
<clipPath id="clip0">
<rect width="40" height="40" fill="white" transform="translate(15 11)"/>
</clipPath>
</defs>
</svg>
