<svg width="70" height="62" viewBox="0 0 70 62" fill="none" xmlns="http://www.w3.org/2000/svg">
<rect width="70" height="62" fill="#00B2FF"/>
<path d="M53.75 39.125C53.7485 38.6282 53.5505 38.1521 53.1992 37.8008C52.8479 37.4495 52.3718 37.2515 51.875 37.25H40.1312C41.9714 36.3061 43.5159 34.8735 44.5952 33.1094C45.6746 31.3454 46.2472 29.3181 46.25 27.25C46.2466 26.6403 46.1923 26.0319 46.0875 25.4312L53.4188 21.55C53.5211 21.4948 53.6061 21.4121 53.664 21.3112C53.7219 21.2103 53.7505 21.0953 53.7466 20.979C53.7427 20.8627 53.7065 20.7499 53.6419 20.6531C53.5774 20.5563 53.4871 20.4795 53.3812 20.4312L35.2563 12.3062C35.1759 12.2692 35.0885 12.25 35 12.25C34.9115 12.25 34.8241 12.2692 34.7437 12.3062L16.6187 20.4312C16.5129 20.4795 16.4226 20.5563 16.3581 20.6531C16.2935 20.7499 16.2573 20.8627 16.2534 20.979C16.2495 21.0953 16.2781 21.2103 16.336 21.3112C16.3939 21.4121 16.4789 21.4948 16.5812 21.55L18.75 22.7V25.4625C18.2147 25.6007 17.7403 25.9125 17.4011 26.349C17.0618 26.7855 16.8768 27.3221 16.875 27.875V29.75C16.875 29.9158 16.9408 30.0747 17.0581 30.1919C17.1753 30.3091 17.3342 30.375 17.5 30.375H21.25C21.4158 30.375 21.5747 30.3091 21.6919 30.1919C21.8092 30.0747 21.875 29.9158 21.875 29.75V27.875C21.8732 27.3221 21.6882 26.7855 21.3489 26.349C21.0097 25.9125 20.5353 25.6007 20 25.4625V23.3625L23.9125 25.4312C23.8077 26.0319 23.7534 26.6403 23.75 27.25C23.7528 29.3181 24.3254 31.3454 25.4047 33.1094C26.4841 34.8735 28.0286 36.3061 29.8688 37.25H22.5C20.8424 37.25 19.2527 37.9085 18.0806 39.0806C16.9085 40.2527 16.25 41.8424 16.25 43.5C16.25 45.1576 16.9085 46.7473 18.0806 47.9194C19.2527 49.0915 20.8424 49.75 22.5 49.75H51.875C52.3723 49.75 52.8492 49.5524 53.2008 49.2008C53.5525 48.8492 53.75 48.3723 53.75 47.875C53.75 47.3777 53.5525 46.9008 53.2008 46.5492C52.8492 46.1975 52.3723 46 51.875 46V41C52.3718 40.9985 52.8479 40.8005 53.1992 40.4492C53.5505 40.0979 53.7485 39.6218 53.75 39.125ZM35 37.25C33.2435 37.2481 31.5187 36.7824 30 35.9V30.6312L32.2437 28.3875L33.4062 27.8062C33.5322 27.7425 33.6329 27.638 33.6919 27.5098C33.7509 27.3816 33.7648 27.2371 33.7312 27.1L33.1062 24.6C33.0789 24.4896 33.0219 24.3888 32.9416 24.3084C32.8612 24.228 32.7604 24.1711 32.65 24.1437L30.15 23.5187C30.0516 23.4937 29.9484 23.4937 29.85 23.5187L27.4688 24.1125L25.6062 23.85C26.1468 22.3645 27.0313 21.028 28.1875 19.95L30.25 21.5C30.2783 21.5232 30.3099 21.5422 30.3438 21.5562L32.8438 22.8062C32.9006 22.8363 32.9617 22.8574 33.025 22.8687L36.775 23.4937C36.8081 23.4989 36.8415 23.501 36.875 23.5C36.9781 23.5004 37.0797 23.4748 37.1703 23.4256C37.261 23.3765 37.3378 23.3054 37.3938 23.2187L38.525 21.525L40.2 20.9687C40.2912 20.9371 40.3744 20.8859 40.4437 20.8187L41.55 19.7125C42.0944 20.184 42.5849 20.7143 43.0125 21.2937L40.8625 23.0125C40.8438 23.025 40.825 23.0437 40.8063 23.0562L39.025 24.8437L36.0188 26.0437C35.9786 26.0594 35.9408 26.0805 35.9062 26.1062L34.0312 27.3562C33.9592 27.4035 33.8976 27.465 33.8503 27.5371C33.803 27.6091 33.771 27.6901 33.7563 27.775L33.1313 31.525C33.1099 31.6561 33.1311 31.7906 33.1919 31.9087C33.2526 32.0269 33.3497 32.1224 33.4688 32.1812L35.625 33.2625V34.75C35.625 34.9158 35.6908 35.0747 35.8081 35.1919C35.9253 35.3091 36.0842 35.375 36.25 35.375H38.75C38.8727 35.3753 38.9926 35.3382 39.0938 35.2687L40.7437 34.175L41.9062 34.4625C40.0523 36.2514 37.5763 37.2508 35 37.25ZM29.1813 19.1375C30.8284 17.9455 32.8014 17.2873 34.8342 17.2515C36.8671 17.2158 38.862 17.8042 40.55 18.9375L39.6625 19.8312L37.925 20.4062C37.793 20.4502 37.6804 20.5385 37.6062 20.6562L36.5812 22.1937L33.3188 21.65L30.9563 20.4687L29.1813 19.1375ZM42.8563 33.4125L40.775 32.8937C40.6912 32.872 40.6038 32.8685 40.5186 32.8836C40.4334 32.8987 40.3524 32.932 40.2812 32.9812L38.5625 34.125H36.875V32.875C36.8763 32.7592 36.8447 32.6455 36.7839 32.547C36.723 32.4485 36.6354 32.3693 36.5312 32.3187L34.4438 31.275L34.95 28.2437L36.5438 27.1812L39.6062 25.9562C39.6849 25.9239 39.757 25.8773 39.8187 25.8187L41.6687 23.9687L43.7 22.3375C44.6789 24.0575 45.1216 26.0307 44.9713 28.004C44.8209 29.9773 44.0844 31.8607 42.8563 33.4125ZM20.625 27.875V29.125H18.125V27.875C18.125 27.5435 18.2567 27.2255 18.4911 26.9911C18.7255 26.7567 19.0435 26.625 19.375 26.625C19.7065 26.625 20.0245 26.7567 20.2589 26.9911C20.4933 27.2255 20.625 27.5435 20.625 27.875ZM18.3 21.0437L35 13.5625L51.7 21.0437L45.8125 24.1687C45.144 21.8165 43.7267 19.7463 41.7754 18.2723C39.8242 16.7983 37.4454 16.0008 35 16.0008C32.5546 16.0008 30.1758 16.7983 28.2246 18.2723C26.2733 19.7463 24.856 21.8165 24.1875 24.1687L18.3 21.0437ZM28.9313 29.9312C28.8161 30.0504 28.7512 30.2093 28.75 30.375V35.0437C27.5804 34.1091 26.636 32.9233 25.9869 31.5742C25.3377 30.2251 25.0004 28.7472 25 27.25C25.0004 26.5137 25.0843 25.7799 25.25 25.0625L27.4125 25.3687C27.4938 25.3625 27.5687 25.3625 27.65 25.3562L30 24.7687L31.9875 25.2625L32.4 26.9125L31.5938 27.3187C31.5437 27.3562 31.4875 27.3937 31.4313 27.4312L28.9313 29.9312ZM23.75 39.75C22.7554 39.75 21.8016 40.1451 21.0983 40.8483C20.3951 41.5516 20 42.5054 20 43.5C20 44.4946 20.3951 45.4484 21.0983 46.1516C21.8016 46.8549 22.7554 47.25 23.75 47.25H51.875C52.0408 47.25 52.1997 47.3158 52.3169 47.4331C52.4342 47.5503 52.5 47.7092 52.5 47.875C52.5 48.0408 52.4342 48.1997 52.3169 48.3169C52.1997 48.4341 52.0408 48.5 51.875 48.5H22.5C21.1739 48.5 19.9021 47.9732 18.9645 47.0355C18.0268 46.0978 17.5 44.8261 17.5 43.5C17.5 42.1739 18.0268 40.9021 18.9645 39.9645C19.9021 39.0268 21.1739 38.5 22.5 38.5H51.875C52.0408 38.5 52.1997 38.5658 52.3169 38.6831C52.4342 38.8003 52.5 38.9592 52.5 39.125C52.5 39.2908 52.4342 39.4497 52.3169 39.5669C52.1997 39.6841 52.0408 39.75 51.875 39.75H23.75ZM50.625 41V46H23.75C23.087 46 22.4511 45.7366 21.9822 45.2678C21.5134 44.7989 21.25 44.163 21.25 43.5C21.25 42.837 21.5134 42.2011 21.9822 41.7322C22.4511 41.2634 23.087 41 23.75 41H50.625Z" fill="#FEFEFE"/>
<path d="M23.75 42.25V43.5H42.5V45.375C42.4992 45.4883 42.5297 45.5996 42.5882 45.6967C42.6466 45.7937 42.7307 45.8727 42.8312 45.925C42.9301 45.9791 43.0419 46.0048 43.1544 45.9993C43.2669 45.9938 43.3757 45.9573 43.4688 45.8938L45 44.875L46.5312 45.8938C46.6252 45.9557 46.7342 45.991 46.8467 45.9961C46.9591 46.0012 47.0708 45.9759 47.17 45.9228C47.2693 45.8696 47.3523 45.7907 47.4104 45.6943C47.4685 45.5979 47.4994 45.4876 47.5 45.375V43.5H49.375V42.25H23.75ZM46.25 44.2063L45.3438 43.6063C45.2425 43.5371 45.1227 43.5 45 43.5C44.8773 43.5 44.7575 43.5371 44.6562 43.6063L43.75 44.2063V43.5H46.25V44.2063Z" fill="#FEFEFE"/>
</svg>
