<svg width="70" height="62" viewBox="0 0 70 62" fill="none" xmlns="http://www.w3.org/2000/svg">
<rect width="70" height="62" fill="#00B2FF"/>
<path d="M53.3644 12.2975C53.1312 12.2012 52.8619 12.2537 52.6831 12.4331L46.25 18.8662V14.125C46.25 13.78 45.9706 13.5 45.625 13.5H20C17.9319 13.5 16.25 15.1819 16.25 17.25V46C16.25 48.0681 17.9319 49.75 20 49.75H45.625C45.9706 49.75 46.25 49.47 46.25 49.125V31.8837L49.1738 28.96C52.125 26.0087 53.75 22.085 53.75 17.9119V12.875C53.75 12.6225 53.5981 12.3944 53.3644 12.2975ZM45 48.5H20C18.6212 48.5 17.5 47.3787 17.5 46C17.5 44.6212 18.6212 43.5 20 43.5H45V48.5ZM45 42.25H20C19.0387 42.25 18.1644 42.6162 17.5 43.2125V17.25C17.5 15.8712 18.6212 14.75 20 14.75H45V20.1162L36.4331 28.6831C36.3156 28.8 36.25 28.9594 36.25 29.125V34.4912L32.6831 38.0581L33.5669 38.9419L37.1338 35.375H42.5C42.6663 35.375 42.825 35.3094 42.9419 35.1919L45 33.1337V42.25ZM52.5 17.9119C52.5 21.7519 51.0044 25.3612 48.29 28.0762L42.2412 34.125H38.3838L48.5669 23.9419L47.6831 23.0581L37.5 33.2412V29.3837L52.5 14.3837V17.9119Z" fill="white"/>
<path d="M31.25 29.125C34.6962 29.125 37.5 26.3212 37.5 22.875C37.5 19.4288 34.6962 16.625 31.25 16.625C27.8038 16.625 25 19.4288 25 22.875C25 26.3212 27.8038 29.125 31.25 29.125ZM28.1756 26.81C28.3919 25.2856 29.6819 24.125 31.25 24.125C32.8181 24.125 34.1081 25.2856 34.3244 26.81C33.475 27.475 32.4094 27.875 31.25 27.875C30.0906 27.875 29.025 27.475 28.1756 26.81ZM30 21.625C30 20.9356 30.5606 20.375 31.25 20.375C31.9394 20.375 32.5 20.9356 32.5 21.625C32.5 22.3144 31.9394 22.875 31.25 22.875C30.5606 22.875 30 22.3144 30 21.625ZM31.25 17.875C34.0069 17.875 36.25 20.1181 36.25 22.875C36.25 23.9369 35.915 24.9206 35.3481 25.7312C34.9487 24.6475 34.1344 23.7737 33.1012 23.29C33.5 22.8469 33.75 22.2669 33.75 21.625C33.75 20.2462 32.6287 19.125 31.25 19.125C29.8713 19.125 28.75 20.2462 28.75 21.625C28.75 22.2669 29 22.8469 29.3988 23.29C28.3656 23.7737 27.5513 24.6475 27.1519 25.7312C26.585 24.9206 26.25 23.9369 26.25 22.875C26.25 20.1181 28.4931 17.875 31.25 17.875Z" fill="white"/>
<path d="M25.625 37.875H31.875V39.125H25.625V37.875Z" fill="white"/>
<path d="M25.625 34.75H33.75V36H25.625V34.75Z" fill="white"/>
<path d="M25.625 31.625H35V32.875H25.625V31.625Z" fill="white"/>
</svg>
