<svg width="70" height="62" viewBox="0 0 70 62" fill="none" xmlns="http://www.w3.org/2000/svg">
<rect width="70" height="62" fill="#00B2FF"/>
<path d="M43.3253 24.4813L42.8973 23.0727C42.3537 21.4725 40.6158 20.6161 39.0156 21.1597C38.1154 21.4656 37.4085 22.1725 37.1027 23.0727L36.6747 24.4813C36.3145 25.6693 36.2389 26.9254 36.454 28.148C36.6502 29.1773 37.3037 30.0617 38.23 30.5513L37.7507 41.2667C37.6865 41.8647 37.8805 42.4618 38.284 42.908C39.1518 43.8572 40.6248 43.9232 41.5739 43.0554C41.6253 43.0085 41.6744 42.9593 41.7213 42.908C42.1158 42.4745 42.3095 41.8949 42.2547 41.3113L41.7727 30.55C42.6978 30.0601 43.3502 29.1763 43.546 28.148C43.7611 26.9254 43.6855 25.6693 43.3253 24.4813ZM42.2327 27.916C42.0883 28.6555 41.5613 29.2622 40.8493 29.5087C40.5791 29.6102 40.405 29.8742 40.418 30.1627L40.9247 41.4167C40.948 41.6374 40.8752 41.8575 40.7247 42.0207C40.3233 42.4181 39.6768 42.4181 39.2753 42.0207C39.1173 41.8443 39.0456 41.607 39.0793 41.3727L39.582 30.1627C39.595 29.8742 39.4209 29.6102 39.1507 29.5087C38.4387 29.2622 37.9117 28.6555 37.7673 27.916C37.589 26.901 37.6518 25.8582 37.9507 24.872L38.3787 23.4627C38.7098 22.5672 39.7042 22.1098 40.5997 22.441C41.0731 22.6161 41.4463 22.9893 41.6213 23.4627L42.0493 24.872C42.3478 25.8583 42.4107 26.901 42.2327 27.916Z" fill="white"/>
<path d="M33 21C32.6318 21 32.3333 21.2985 32.3333 21.6667V27.3907L30.5287 29.1953C30.3952 29.3283 30.3242 29.5118 30.3333 29.7L30.9167 41.3667C30.9306 41.6183 30.8393 41.8643 30.6647 42.046C30.2998 42.4142 29.7054 42.4168 29.3372 42.0518C29.3352 42.0499 29.3333 42.0479 29.3313 42.046C29.1567 41.8643 29.0654 41.6183 29.0793 41.3667L29.6667 29.7C29.676 29.5118 29.6053 29.3285 29.472 29.1953L27.6667 27.3907V21.6667C27.6667 21.2985 27.3682 21 27 21C26.6318 21 26.3333 21.2985 26.3333 21.6667V27.6667C26.3333 27.8435 26.4037 28.013 26.5287 28.138L28.3193 29.9293L27.7507 41.302C27.6902 42.5443 28.6482 43.6004 29.8904 43.6609C31.1327 43.7214 32.1888 42.7634 32.2493 41.5212C32.2529 41.4482 32.2529 41.3751 32.2493 41.3021L31.6807 29.9294L33.4713 28.1381C33.5963 28.0131 33.6667 27.8436 33.6667 27.6668V21.6668C33.6667 21.2985 33.3682 21 33 21Z" fill="white"/>
<path d="M29 21C28.6318 21 28.3333 21.2985 28.3333 21.6667V27C28.3333 27.3682 28.6318 27.6667 29 27.6667C29.3682 27.6667 29.6667 27.3682 29.6667 27V21.6667C29.6667 21.2985 29.3682 21 29 21Z" fill="white"/>
<path d="M31 21C30.6318 21 30.3333 21.2985 30.3333 21.6667V27C30.3333 27.3682 30.6318 27.6667 31 27.6667C31.3682 27.6667 31.6667 27.3682 31.6667 27V21.6667C31.6667 21.2985 31.3682 21 31 21Z" fill="white"/>
<path d="M35 11C23.9543 11 15 19.9543 15 31C15 42.0457 23.9543 51 35 51C46.0457 51 55 42.0457 55 31C54.9875 19.9595 46.0405 11.0125 35 11ZM35 49.6667C24.6907 49.6667 16.3333 41.3093 16.3333 31C16.3333 20.6907 24.6907 12.3333 35 12.3333C45.3093 12.3333 53.6667 20.6907 53.6667 31C53.6549 41.3044 45.3044 49.6549 35 49.6667Z" fill="white"/>
<path d="M37.1641 43.5143C37.1283 43.1479 36.8023 42.8798 36.4358 42.9156C36.4272 42.9164 36.4186 42.9174 36.41 42.9186L36.4127 42.9179C35.4741 43.0269 34.5259 43.0269 33.5873 42.9179C33.2215 42.875 32.8903 43.1367 32.8473 43.5026C32.8044 43.8684 33.0662 44.1997 33.432 44.2426C34.4729 44.3642 35.5244 44.3642 36.5653 44.2426C36.9318 44.2069 37.1998 43.8808 37.1641 43.5143Z" fill="white"/>
<path d="M45.2 22.4093C44.9634 22.1272 44.5429 22.0903 44.2608 22.327C44.2599 22.3277 44.259 22.3286 44.258 22.3293C43.9766 22.5666 43.9407 22.9871 44.178 23.2686C48.1976 28.0403 47.8901 35.0961 43.4707 39.5C43.2098 39.7599 43.2091 40.1821 43.469 40.443C43.7289 40.7038 44.1512 40.7046 44.412 40.4446C49.3234 35.5519 49.6659 27.7117 45.2 22.4093Z" fill="white"/>
<path d="M30.5327 19.812C30.5323 19.812 30.5318 19.8119 30.5314 19.8119C30.5308 19.8119 30.5301 19.812 30.5293 19.812H30.5327Z" fill="white"/>
<path d="M38.1447 18.0393C35.5393 17.4149 32.8068 17.5827 30.2973 18.5213C29.9527 18.6509 29.7784 19.0354 29.908 19.38C30.0057 19.6397 30.254 19.8116 30.5314 19.8119C30.6112 19.8115 30.6902 19.7969 30.7647 19.7686C33.0245 18.9236 35.4852 18.7726 37.8313 19.3353C38.1893 19.4218 38.5495 19.2019 38.636 18.844C38.7225 18.4861 38.5026 18.1258 38.1447 18.0393Z" fill="white"/>
<path d="M26.4993 39.4667C24.2519 37.2231 22.9923 34.1757 23 31C22.9934 28.4628 23.7971 25.9898 25.294 23.9413C25.5153 23.647 25.456 23.2291 25.1617 23.0078C24.8673 22.7866 24.4494 22.8458 24.2282 23.1402C24.2243 23.1454 24.2204 23.1507 24.2167 23.156C20.3622 28.455 20.9294 35.7693 25.5547 40.4107C25.8153 40.6715 26.2382 40.6717 26.499 40.411C26.7598 40.1503 26.76 39.7275 26.4993 39.4667Z" fill="white"/>
</svg>
