<svg width="70" height="62" viewBox="0 0 70 62" fill="none" xmlns="http://www.w3.org/2000/svg">
<rect width="70" height="62" fill="#00B2FF"/>
<path d="M53.2028 29.7641C54.0652 28.4513 54.5176 26.938 54.5176 25.3471C54.5176 23.2347 53.7074 21.237 52.2362 19.7218C51.0062 18.4549 49.4255 17.6391 47.7078 17.3688C47.7827 17.0128 47.8205 16.6486 47.8205 16.2788C47.8205 13.3681 45.4524 11 42.5416 11C39.6308 11 37.2627 13.3681 37.2627 16.2788C37.2627 16.9022 37.3705 17.5106 37.5795 18.0838C33.5325 18.3211 30.3125 21.6887 30.3125 25.7941C30.3125 27.7085 30.9994 29.5053 32.2593 30.9189C31.6973 31.9186 31.4029 33.0411 31.4029 34.2005C31.4029 37.9038 34.4156 40.9165 38.1189 40.9165C39.7473 40.9165 41.2977 40.3209 42.5 39.2868V49.4375H34.2188V46.5446C35.1391 46.1269 35.7812 45.1998 35.7812 44.125C35.7812 42.6603 34.5897 41.4688 33.125 41.4688H17.6562C16.1916 41.4688 15 42.6603 15 44.125C15 45.1998 15.6421 46.127 16.5625 46.5446V50.2188C16.5625 50.6502 16.9123 51 17.3438 51H20.4688C20.9002 51 21.25 50.6502 21.25 50.2188V46.7812H29.5312V49.4375H28.7891C28.3577 49.4375 28.0078 49.7873 28.0078 50.2188C28.0078 50.6502 28.3577 51 28.7891 51H46.7969C47.2283 51 47.5781 50.6502 47.5781 50.2188C47.5781 49.7873 47.2283 49.4375 46.7969 49.4375H44.0625V39.3123C45.2463 40.3305 46.7721 40.9166 48.3802 40.9166C52.0305 40.9166 55 37.947 55 34.2968C55 32.6023 54.3525 30.9864 53.2028 29.7641ZM19.6875 49.4375H18.125V46.7812H19.6875V49.4375ZM32.6562 49.4375H31.0938V46.7812H32.6562V49.4375ZM33.125 45.2188H30.3125H20.4688H17.6562C17.0531 45.2188 16.5625 44.7281 16.5625 44.125C16.5625 43.5219 17.0531 43.0312 17.6562 43.0312H33.125C33.7281 43.0312 34.2188 43.5219 34.2188 44.125C34.2188 44.7281 33.7281 45.2188 33.125 45.2188ZM48.3802 39.3541C46.6152 39.3541 44.9794 38.4296 44.0625 36.9286V33.2891C44.0689 33.2832 44.0755 33.2779 44.0818 33.2717L48.5218 28.8317C48.8269 28.5266 48.8269 28.032 48.5218 27.7268C48.2167 27.4218 47.7222 27.4217 47.4169 27.7268L44.0625 31.0813V23.7919C44.0625 23.3604 43.7127 23.0106 43.2812 23.0106C42.8498 23.0106 42.5 23.3604 42.5 23.7919V25.8192L41.8775 25.1967C41.5725 24.8916 41.078 24.8916 40.7726 25.1967C40.4675 25.5018 40.4675 25.9965 40.7726 26.3016L42.5 28.0289V33.0395L40.3625 30.902C40.3618 30.9013 40.3611 30.9005 40.3604 30.8998L38.4723 29.0118C38.1672 28.7067 37.6727 28.7067 37.3674 29.0118C37.0623 29.3169 37.0623 29.8116 37.3674 30.1166L38.5279 31.277L36.407 32.4364C36.0284 32.6434 35.8892 33.118 36.0962 33.4966C36.238 33.7563 36.5059 33.9034 36.7823 33.9034C36.909 33.9034 37.0375 33.8725 37.1564 33.8074L39.6792 32.4284L42.5 35.2492V36.912C41.5625 38.423 39.9016 39.354 38.1189 39.354C35.2773 39.354 32.9654 37.0422 32.9654 34.2005C32.9654 33.144 33.2839 32.1277 33.8864 31.2618C34.1064 30.9457 34.0632 30.5163 33.7845 30.2504C32.5532 29.0752 31.875 27.4926 31.875 25.7941C31.875 22.3969 34.6388 19.633 38.036 19.633C38.2821 19.633 38.531 19.649 38.7968 19.6817C39.1055 19.7195 39.4066 19.5714 39.5646 19.3041C39.7227 19.0368 39.7076 18.7012 39.5259 18.4494C39.0675 17.8138 38.8252 17.0633 38.8252 16.279C38.8252 14.2298 40.4923 12.5627 42.5416 12.5627C44.5907 12.5627 46.2579 14.2298 46.2579 16.279C46.2579 16.788 46.1565 17.2816 45.9566 17.746C45.8545 17.9834 45.8763 18.2559 46.0149 18.474C46.1535 18.692 46.391 18.8275 46.6494 18.8357C50.1852 18.9484 52.955 21.8086 52.955 25.3471C52.955 26.8231 52.472 28.2161 51.5584 29.3756C51.299 29.7049 51.3456 30.1803 51.6642 30.4528C52.7912 31.4166 53.4375 32.8177 53.4375 34.2967C53.4375 37.0854 51.1688 39.3541 48.3802 39.3541Z" fill="white"/>
<path d="M50.5515 49.6664C50.4063 49.5211 50.2047 49.4375 49.9992 49.4375C49.7937 49.4375 49.5921 49.5211 49.4469 49.6664C49.3016 49.8117 49.218 50.0133 49.218 50.2188C49.218 50.4242 49.3015 50.6258 49.4469 50.7711C49.5921 50.9164 49.7937 51 49.9992 51C50.2047 51 50.4063 50.9164 50.5515 50.7711C50.6968 50.6258 50.7805 50.4242 50.7805 50.2188C50.7805 50.0133 50.6969 49.8117 50.5515 49.6664Z" fill="white"/>
<path d="M23.177 24.4364C22.0165 24.0874 20.8084 24.4451 20.0175 25.2602C19.7947 25.0301 19.5352 24.8334 19.2449 24.6774C18.5066 24.2805 17.6579 24.195 16.8553 24.4364C16.4422 24.5607 16.208 24.9964 16.3323 25.4096C16.4565 25.8227 16.8924 26.0567 17.3055 25.9326C17.7084 25.8114 18.1345 25.8543 18.5052 26.0535C18.8759 26.2527 19.1467 26.5844 19.268 26.9874C19.3673 27.3176 19.6713 27.5436 20.0161 27.5436C20.3609 27.5436 20.6649 27.3176 20.7642 26.9874C21.0145 26.1556 21.8949 25.6824 22.7268 25.9327C23.14 26.057 23.5756 25.8228 23.7 25.4096C23.8243 24.9964 23.5901 24.5607 23.177 24.4364Z" fill="white"/>
<path d="M28.1608 18.6739C27.3584 18.4325 26.5096 18.518 25.7713 18.9148C25.4816 19.0705 25.2225 19.2668 25 19.4963C24.7775 19.2668 24.5184 19.0705 24.2288 18.9148C23.4904 18.5179 22.6415 18.4324 21.8392 18.6739C21.426 18.7982 21.1919 19.2339 21.3162 19.6472C21.4405 20.0604 21.8765 20.2944 22.2894 20.1702C22.6921 20.0491 23.1183 20.0919 23.489 20.2912C23.8597 20.4904 24.1306 20.822 24.2519 21.2251C24.3512 21.5552 24.6552 21.7812 25 21.7812C25.3448 21.7812 25.6488 21.5552 25.7481 21.2251C25.8694 20.8221 26.1403 20.4905 26.511 20.2912C26.8817 20.0919 27.3077 20.0491 27.7106 20.1702C28.1238 20.2944 28.5594 20.0603 28.6838 19.6472C28.8081 19.234 28.574 18.7983 28.1608 18.6739Z" fill="white"/>
<path d="M38.036 21.2216H38.0299C37.5985 21.2216 37.2517 21.5713 37.2517 22.0028C37.2517 22.4343 37.6046 22.7841 38.036 22.7841C38.4674 22.7841 38.8173 22.4343 38.8173 22.0028C38.8173 21.5713 38.4675 21.2216 38.036 21.2216Z" fill="white"/>
<path d="M35.8304 22.6132C35.5181 22.3154 35.0235 22.3273 34.7259 22.6396C33.9118 23.4936 33.4635 24.6139 33.4635 25.7941C33.4635 26.2255 33.8134 26.5753 34.2448 26.5753C34.6762 26.5753 35.026 26.2255 35.026 25.7941C35.026 25.0172 35.321 24.2798 35.8569 23.7177C36.1546 23.4054 36.1427 22.9109 35.8304 22.6132Z" fill="white"/>
</svg>
