<svg width="70" height="62" viewBox="0 0 70 62" fill="none" xmlns="http://www.w3.org/2000/svg">
<rect width="70" height="62" fill="#00B2FF"/>
<path d="M54.0198 46.3772H49.9982C49.5484 46.3772 49.1812 46.2797 48.8427 46.0707C47.6235 45.3161 46.6522 42.8995 46.0718 41.4556C46.0066 41.2935 45.9413 41.1316 45.8754 40.9699C44.9205 38.6281 43.7321 35.7138 41.3712 34.2092C40.3143 33.5338 39.1128 33.1913 37.8003 33.1913H36.2204V26.5188C36.7818 26.5173 37.3089 26.2985 37.7045 25.9029C38.1022 25.5067 38.3215 24.9781 38.322 24.4143C38.3226 23.8495 38.1036 23.3191 37.7046 22.9202L33.3375 18.5684C33.1083 18.3399 32.7373 18.3405 32.5089 18.5699C32.2805 18.7991 32.2811 19.1701 32.5104 19.3984L36.8768 23.7495C37.0534 23.9261 37.1505 24.1618 37.1502 24.4132C37.15 24.6635 37.0531 24.8977 36.8768 25.0735C36.5117 25.4385 35.9179 25.4385 35.5528 25.0735L27.0753 16.5981C26.8465 16.3692 26.4755 16.3692 26.2468 16.5981L17.7693 25.0735C17.5929 25.2499 17.3576 25.347 17.1066 25.347C17.1063 25.347 17.1059 25.347 17.1056 25.347C16.8553 25.3468 16.6212 25.2499 16.4446 25.0727C16.2689 24.8977 16.1721 24.6635 16.1719 24.4132C16.1716 24.1618 16.2688 23.9261 16.4454 23.7495L25.9998 14.1948C26.1748 14.0192 26.4091 13.9223 26.6593 13.922H26.6602C26.9112 13.922 27.1466 14.0192 27.323 14.1956L30.7069 17.5795C30.9356 17.8084 31.3066 17.8084 31.5355 17.5795C31.7643 17.3507 31.7643 16.9798 31.5355 16.7509L28.1516 13.367C27.7538 12.9692 27.2243 12.7502 26.6602 12.7502C26.6595 12.7502 26.6588 12.7502 26.6582 12.7502C26.0945 12.7508 25.5659 12.97 25.1705 13.367L15.6168 22.9209C15.2185 23.3192 14.9995 23.8495 15 24.4143C15.0005 24.978 15.2198 25.5066 15.6159 25.9013C16.0115 26.2984 16.539 26.5175 17.1016 26.5188V36.8399V49.4399H15.5859C15.2623 49.4399 15 49.7023 15 50.0259C15 50.3495 15.2623 50.6118 15.5859 50.6118H54.0442C54.5712 50.6118 55 50.184 55 49.6582V47.3572C55 46.8169 54.5603 46.3772 54.0198 46.3772ZM19.6905 49.44H18.2735V37.4259H19.6905V49.44ZM23.7188 49.44H20.8623V37.4259H23.1398H23.7188V49.44ZM28.4314 49.44H24.8907V47.569H28.4314V49.44ZM28.4314 46.3971H24.8907V44.1895H28.4314V46.3971ZM28.4314 43.0176H24.8907V40.8077H28.4314V43.0176ZM28.4314 39.6359H24.8907V37.4259H28.4314V39.6359ZM29.5962 36.2541H23.7258V33.3498C23.7258 31.7313 25.0425 30.4145 26.661 30.4145C28.2795 30.4145 29.5962 31.7313 29.5962 33.3498V36.2541ZM32.4575 49.44H29.6033V37.4259H30.1822H32.4575V49.44ZM30.7681 36.2541V33.3498C30.7681 31.0851 28.9257 29.2426 26.661 29.2426C24.3963 29.2426 22.5539 31.085 22.5539 33.3498V36.2541H20.2764H18.2735V26.1681C18.389 26.0913 18.4977 26.0024 18.5979 25.9021L26.661 17.8409L34.7241 25.9021C34.8244 26.0024 34.933 26.0913 35.0485 26.1682V36.2541H33.0434H30.7681ZM36.2204 49.44V45.5613C36.2204 45.2377 35.958 44.9753 35.6344 44.9753C35.3109 44.9753 35.0485 45.2377 35.0485 45.5613V49.44H33.6294V37.4259H35.0485V42.8572C35.0485 43.1808 35.3109 43.4431 35.6344 43.4431C35.958 43.4431 36.2204 43.1808 36.2204 42.8572V37.4259H37.8003C38.3038 37.4259 38.7147 37.5383 39.0931 37.7792C40.3336 38.57 41.2573 40.8502 41.8685 42.359C41.9441 42.5455 42.0199 42.7319 42.0957 42.9184C43.0031 45.1541 44.1214 47.9092 46.266 49.44H36.2204ZM53.8281 49.44H49.9982C48.983 49.44 48.0517 49.1826 47.2307 48.6752C45.182 47.4063 44.1193 44.7878 43.1816 42.4776C43.1059 42.2914 43.0301 42.1052 42.9547 41.919C42.2875 40.272 41.2792 37.7831 39.7228 36.7909C39.1555 36.4296 38.5267 36.254 37.8003 36.254H36.2204V34.3631H37.8003C38.8856 34.3631 39.8748 34.6434 40.7409 35.197C42.7879 36.5015 43.8517 39.1104 44.7903 41.4123C44.8555 41.5721 44.9201 41.7322 44.9844 41.8924C45.6595 43.572 46.6796 46.11 48.2264 47.0674C48.7511 47.3914 49.3307 47.549 49.9982 47.549H53.8281V49.44Z" fill="white"/>
<path d="M41.8707 23.1216H50.4522C52.9598 23.1216 55 21.0824 55 18.5759C55 16.0682 52.9598 14.028 50.4522 14.028C50.4224 14.028 50.3925 14.0284 50.3626 14.029C49.4459 12.4125 47.7098 11.3881 45.8326 11.3881C42.961 11.3881 40.6248 13.7234 40.6248 16.5938C40.6248 16.7001 40.6281 16.807 40.6347 16.914C39.4412 17.4047 38.645 18.5664 38.645 19.8958C38.645 21.6745 40.092 23.1216 41.8707 23.1216ZM41.4015 17.8952C41.7005 17.8255 41.8948 17.5368 41.8471 17.2335C41.8137 17.0209 41.7966 16.8057 41.7966 16.5938C41.7966 14.3696 43.6071 12.56 45.8325 12.56C47.3928 12.56 48.8273 13.4731 49.4871 14.8862C49.5931 15.1131 49.8318 15.2476 50.0807 15.2209C50.2122 15.2067 50.3336 15.1998 50.4521 15.1998C52.3136 15.1998 53.828 16.7143 53.828 18.5759C53.828 20.4362 52.3136 21.9497 50.4521 21.9497H41.8707C40.7382 21.9497 39.8169 21.0284 39.8169 19.8958C39.8169 18.9357 40.4685 18.113 41.4015 17.8952Z" fill="white"/>
<path d="M26.661 22.2863C25.2243 22.2863 24.0554 23.4553 24.0554 24.892C24.0554 26.3288 25.2243 27.4978 26.661 27.4978C28.0977 27.4978 29.2666 26.3288 29.2666 24.892C29.2666 23.4553 28.0977 22.2863 26.661 22.2863ZM26.661 26.3259C25.8705 26.3259 25.2273 25.6827 25.2273 24.892C25.2273 24.1014 25.8705 23.4582 26.661 23.4582C27.4516 23.4582 28.0948 24.1014 28.0948 24.892C28.0948 25.6827 27.4516 26.3259 26.661 26.3259Z" fill="white"/>
</svg>
