<svg width="70" height="62" viewBox="0 0 70 62" fill="none" xmlns="http://www.w3.org/2000/svg">
<rect width="70" height="62" fill="#00B2FF"/>
<path d="M34.9302 16.0828C35.3647 16.0828 35.717 15.7305 35.717 15.296V11.7868C35.717 11.3523 35.3647 11 34.9302 11C34.4957 11 34.1434 11.3523 34.1434 11.7868V15.296C34.1435 15.7305 34.4958 16.0828 34.9302 16.0828Z" fill="white"/>
<path d="M54.1625 38.0302L52.7726 36.6442C52.2781 36.1503 51.6191 35.8783 50.9169 35.8783C50.4679 35.8783 50.0369 35.99 49.655 36.1993L47.0358 33.5832L47.1633 33.4558C48.2259 32.3911 48.2255 30.661 47.1633 29.5999C46.7837 29.2196 46.31 28.966 45.7937 28.8593C45.8647 28.6139 45.9022 28.3569 45.9022 28.0939C45.9022 27.363 45.6183 26.6777 45.1044 26.1659C44.7247 25.7856 44.2511 25.532 43.7347 25.4253C43.8058 25.1799 43.8433 24.9229 43.8433 24.6598C43.8433 23.9289 43.5594 23.2436 43.0446 22.731C42.6558 22.3428 42.1779 22.097 41.6762 21.9924C41.9446 21.0668 41.7152 20.0255 40.9871 19.2961C40.381 18.6926 39.5586 18.4332 38.766 18.5173L33.5758 17.5349C32.7842 17.3847 31.7957 17.2854 31.1717 17.8546C31.1323 17.8905 31.0922 17.9318 31.0526 17.9778C30.0851 17.6252 28.9567 17.8352 28.1819 18.6091C27.6679 19.1224 27.3848 19.8074 27.3848 20.5379C27.3848 20.801 27.4221 21.058 27.4931 21.3035C26.9773 21.4101 26.5043 21.6634 26.1259 22.0424C25.6109 22.5553 25.3269 23.2396 25.3264 23.9692C25.3262 24.2329 25.3636 24.4907 25.435 24.7368C24.919 24.8432 24.4456 25.096 24.0661 25.4751C23.5511 25.9896 23.2675 26.6749 23.2675 27.405C23.2675 27.9642 23.4344 28.497 23.7438 28.947C23.3532 29.0794 22.9954 29.2998 22.6958 29.5991C21.6325 30.661 21.6321 32.3912 22.6965 33.4574L22.8236 33.584L20.204 36.1988C19.2305 35.7404 18.0311 35.9121 17.2277 36.7145L15.8369 38.1014C15.3422 38.5954 15.0699 39.2545 15.0698 39.9571C15.0698 40.6597 15.3422 41.3189 15.8369 41.813L17.5726 43.5466C17.8801 43.8537 18.3783 43.8534 18.6853 43.546C18.9924 43.2385 18.9921 42.7403 18.6847 42.4333L16.949 40.6997C16.7519 40.5029 16.6434 40.2392 16.6434 39.9571C16.6434 39.6752 16.7519 39.4115 16.9485 39.2152L18.3394 37.8282C18.6869 37.4811 19.2187 37.4294 19.6226 37.6709C19.6511 37.7136 19.684 37.7542 19.7216 37.792C19.789 37.8596 19.866 37.9114 19.9477 37.9492L27.9237 45.9135C27.9616 45.9961 28.0137 46.0739 28.0815 46.1418C28.1476 46.208 28.223 46.2592 28.303 46.2968C28.4717 46.4875 28.5649 46.7311 28.5649 46.991C28.5649 47.273 28.4564 47.5367 28.2594 47.7335L26.8699 49.1213C26.4594 49.53 25.7915 49.5299 25.3822 49.1225L23.6465 47.3867C23.3393 47.0794 22.8412 47.0794 22.5339 47.3867C22.2266 47.6939 22.2266 48.1921 22.5339 48.4993L24.2708 50.2364C24.7821 50.7456 25.4535 51 26.1252 51C26.7971 51 27.4693 50.7452 27.9812 50.2356L29.3715 48.8469C29.8662 48.3528 30.1386 47.6937 30.1386 46.991C30.1386 46.4895 29.9991 46.0106 29.7398 45.5976L32.688 42.6531C32.6911 42.6499 32.6942 42.6467 32.6974 42.6435C33.035 42.2945 33.9751 42.3598 34.8842 42.4229C35.5301 42.4678 36.2503 42.5178 36.9539 42.4367L40.1823 45.6613C39.9732 46.0426 39.8615 46.4731 39.8615 46.9214C39.8615 47.6233 40.134 48.282 40.6287 48.7761L42.019 50.1648C42.5134 50.6586 43.1724 50.9306 43.8746 50.9306C44.5767 50.9306 45.2357 50.6587 45.7301 50.1648L54.163 41.7421C54.6577 41.2481 54.9301 40.589 54.9301 39.8864C54.9301 39.1838 54.6576 38.5247 54.1625 38.0302ZM33.2828 19.081L36.6958 19.727L34.653 21.7691C34.3369 21.6172 33.9038 21.3339 33.4287 20.8794C32.7783 20.2572 32.313 19.5389 32.2707 19.0908C32.2706 19.0906 32.2706 19.0903 32.2706 19.0901C32.2706 19.09 32.2705 19.0899 32.2705 19.0899C32.2675 19.0577 32.2667 19.032 32.2671 19.0124C32.37 18.9874 32.6433 18.9596 33.2828 19.081ZM29.2939 19.7224C29.6925 19.3242 30.3117 19.2783 30.7621 19.5833C31.0173 20.6535 31.9302 21.6234 32.3409 22.0164C32.6453 22.3076 33.6219 23.1808 34.6077 23.4208C34.7411 23.612 34.8137 23.8399 34.8137 24.0803C34.8137 24.3901 34.6945 24.6797 34.4774 24.8966C34.2609 25.1135 33.9708 25.2328 33.6605 25.2328C33.3501 25.2328 33.0601 25.1135 32.8426 24.8956L32.8425 24.8955L32.8421 24.8951L29.2938 21.3532C29.0775 21.1372 28.9583 20.8476 28.9583 20.5379C28.9584 20.2281 29.0776 19.9385 29.2939 19.7224ZM27.2379 23.1558C27.4544 22.939 27.7442 22.8196 28.054 22.8196C28.3643 22.8196 28.655 22.9392 28.8729 23.1569L31.7301 26.0084C32.18 26.459 32.18 27.1923 31.7316 27.6414C31.514 27.8581 31.2229 27.9775 30.912 27.9775C30.6012 27.9775 30.3101 27.8581 30.0933 27.6423L30.0933 27.6422L27.9257 25.4751C27.9223 25.4717 27.9187 25.4686 27.9152 25.4652L27.2371 24.7874C27.0195 24.57 26.8997 24.2799 26.9 23.9703C26.9003 23.6618 27.0197 23.3731 27.2379 23.1558ZM25.1781 26.5885C25.3947 26.3721 25.6851 26.253 25.9959 26.253C26.3041 26.253 26.592 26.3704 26.8077 26.583L28.9819 28.7562C29.1987 28.9721 29.3182 29.2614 29.3182 29.5708C29.3182 29.8801 29.1987 30.1694 28.9811 30.3862C28.7645 30.6024 28.4744 30.7216 28.1642 30.7216C27.8535 30.7216 27.5625 30.6021 27.3456 30.3862L26.5574 29.5989C26.5572 29.5987 26.557 29.5985 26.5569 29.5984L25.1782 28.2214C24.9608 28.0042 24.8412 27.7142 24.8412 27.4049C24.8412 27.0956 24.9608 26.8055 25.1781 26.5885ZM23.8078 30.7124C24.0254 30.495 24.3162 30.3753 24.6265 30.3753C24.9369 30.3753 25.2276 30.4949 25.4451 30.7121L26.2344 31.5005C26.4512 31.7164 26.5706 32.0057 26.5706 32.3151C26.5706 32.6245 26.4512 32.9137 26.2327 33.1314C26.0162 33.3481 25.7262 33.4676 25.4158 33.4676C25.1054 33.4676 24.8154 33.3482 24.5973 33.1298L24.4985 33.0314C24.4972 33.03 24.4962 33.0286 24.4949 33.0274C24.4934 33.026 24.4919 33.0247 24.4904 33.0233L23.8086 32.3442C23.3587 31.8933 23.3583 31.1614 23.8078 30.7124ZM39.8417 39.6544C39.5346 39.3469 39.0364 39.3467 38.729 39.6537L38.029 40.3528C37.3639 41.018 36.1587 40.9342 34.9931 40.8534C33.7274 40.7654 32.4186 40.6746 31.5716 41.5442L28.6736 44.4387L21.4265 37.2022L23.9912 34.6421C24.4151 34.902 24.9042 35.0413 25.416 35.0413C26.1472 35.0413 26.8328 34.7578 27.3449 34.2448C27.8604 33.7314 28.1444 33.0461 28.1444 32.3152C28.1444 32.3084 28.144 32.3017 28.144 32.2949C28.1508 32.2949 28.1576 32.2953 28.1644 32.2953C28.8945 32.2953 29.5796 32.0128 30.0924 31.5006C30.6079 30.9871 30.8919 30.3018 30.8919 29.571C30.8919 29.5642 30.8915 29.5574 30.8915 29.5506C30.8983 29.5506 30.9052 29.5511 30.9122 29.5511C31.6421 29.5511 32.3276 29.2689 32.8438 28.7547C33.3797 28.2179 33.6448 27.5112 33.6397 26.806C33.6468 26.806 33.6538 26.8064 33.6608 26.8064C34.392 26.8064 35.0776 26.523 35.5905 26.0092C36.1044 25.4958 36.3876 24.8108 36.3876 24.0803C36.3876 23.5695 36.2487 23.0811 35.9897 22.6581L38.2376 20.4111C38.4051 20.2443 38.6116 20.1396 38.8281 20.0964C38.8515 20.0939 38.8747 20.0902 38.8976 20.0856C39.2449 20.0378 39.6097 20.1449 39.8753 20.4095C40.3252 20.8602 40.3252 21.5935 39.8769 22.0425L39.1923 22.7243C39.1901 22.7266 39.1876 22.7286 39.1854 22.7309L38.3969 23.5181C38.0894 23.8251 38.089 24.3233 38.3962 24.6307C38.7033 24.9382 39.2015 24.9385 39.5088 24.6314L40.1961 23.945C40.1963 23.9449 40.1965 23.9447 40.1966 23.9446L40.3005 23.841C40.7517 23.394 41.4826 23.3949 41.9333 23.845C42.1502 24.061 42.2697 24.3503 42.2697 24.6596C42.2697 24.9689 42.1502 25.2582 41.9316 25.4759L41.2431 26.1658C41.243 26.1659 41.2429 26.166 41.2429 26.1661L40.4544 26.9514C40.1465 27.258 40.1455 27.7562 40.4522 28.064C40.7588 28.3719 41.2569 28.3728 41.5648 28.0663L42.3569 27.2774C42.5733 27.0606 42.8634 26.9412 43.1737 26.9412C43.4841 26.9412 43.7743 27.0606 43.9923 27.279C44.2092 27.495 44.3286 27.7843 44.3286 28.0937C44.3286 28.403 44.2092 28.6923 43.9911 28.9095L42.6184 30.2827C42.3112 30.59 42.3113 31.0881 42.6186 31.3953C42.7722 31.5489 42.9735 31.6256 43.1748 31.6256C43.3762 31.6256 43.5776 31.5488 43.7312 31.3951L44.404 30.7221C44.4078 30.7185 44.4119 30.7153 44.4158 30.7114C44.6322 30.4946 44.9223 30.3752 45.2326 30.3752C45.543 30.3752 45.8331 30.4946 46.0504 30.7122C46.4998 31.1612 46.4994 31.8932 46.0504 32.3431L45.3664 33.0263C45.3662 33.0265 45.3658 33.0267 45.3656 33.027C45.3654 33.0272 45.3651 33.0275 45.3649 33.0278L44.2793 34.1121C43.9719 34.4192 43.9715 34.9174 44.2786 35.2248C44.4322 35.3786 44.6338 35.4556 44.8353 35.4556C45.0365 35.4556 45.2377 35.3789 45.3913 35.2255L45.9223 34.6951L48.4674 37.2372L41.2209 44.4749L38.6245 41.8816C38.8055 41.7652 38.9787 41.6283 39.1413 41.4657L39.8409 40.767C40.1485 40.46 40.1488 39.9618 39.8417 39.6544ZM53.0509 40.6288L44.618 49.0514C44.4208 49.2485 44.1567 49.357 43.8745 49.357C43.5923 49.357 43.3283 49.2485 43.1309 49.0514L41.7405 47.6627C41.5435 47.466 41.435 47.2027 41.435 46.9214C41.435 46.6401 41.5435 46.3768 41.7405 46.18L50.1734 37.7574C50.3708 37.5603 50.6347 37.4517 50.917 37.4517C51.1992 37.4517 51.4633 37.5603 51.6611 37.7578L53.051 39.1439C53.248 39.3406 53.3565 39.6042 53.3565 39.8863C53.3565 40.1684 53.2479 40.4321 53.0509 40.6288Z" fill="white"/>
<path d="M24.4826 15.4196C24.6362 15.5728 24.8373 15.6494 25.0384 15.6494C25.24 15.6494 25.4416 15.5724 25.5953 15.4184C25.9022 15.1108 25.9018 14.6127 25.5942 14.3057L22.7271 11.4444C22.4196 11.1375 21.9214 11.1378 21.6145 11.4455C21.3075 11.7531 21.308 12.2512 21.6156 12.5582L24.4826 15.4196Z" fill="white"/>
<path d="M44.8221 15.6494C45.0232 15.6494 45.2245 15.5727 45.3781 15.4193L48.2429 12.5579C48.5503 12.2509 48.5507 11.7527 48.2436 11.4452C47.9365 11.1378 47.4384 11.1375 47.1309 11.4446L44.266 14.306C43.9586 14.6131 43.9583 15.1113 44.2654 15.4187C44.4191 15.5725 44.6206 15.6494 44.8221 15.6494Z" fill="white"/>
<path d="M19.9077 44.8441C19.6031 45.1539 19.6073 45.6522 19.9173 45.9568L19.9195 45.959C20.0724 46.1093 20.2709 46.1841 20.4694 46.1841C20.673 46.1841 20.8767 46.1053 21.031 45.9483C21.3356 45.6385 21.3302 45.1392 21.0204 44.8346C20.7106 44.53 20.2125 44.5343 19.9077 44.8441Z" fill="white"/>
<path d="M41.7661 38.5209C41.8858 38.5209 42.0072 38.4937 42.1212 38.4363C42.5092 38.2405 42.665 37.7674 42.4694 37.3795C42.2737 36.9915 41.8005 36.8355 41.4126 37.0312L41.4083 37.0334C41.0203 37.2291 40.8666 37.7012 41.0622 38.0891C41.2004 38.3632 41.4782 38.5209 41.7661 38.5209Z" fill="white"/>
</svg>
