<svg width="70" height="62" viewBox="0 0 70 62" fill="none" xmlns="http://www.w3.org/2000/svg">
<rect width="70" height="62" fill="#00B2FF"/>
<path d="M38.125 46.3125C37.6937 46.3125 37.3438 46.6625 37.3438 47.0938C37.3438 47.525 37.6937 47.875 38.125 47.875C38.5562 47.875 38.9062 47.525 38.9062 47.0938C38.9062 46.6625 38.5562 46.3125 38.125 46.3125Z" fill="white"/>
<path d="M49.0625 14.5938H46.7188V13.3438C46.7188 12.0514 45.6673 11 44.375 11H25.625C24.3327 11 23.2812 12.0514 23.2812 13.3438V14.5938H20.9375C19.6452 14.5938 18.5938 15.6452 18.5938 16.9375C18.5938 22.0201 20.972 25.7552 24.8303 26.7952C26.153 29.7065 28.2442 32.1814 30.8986 33.9698C31.51 34.3817 31.875 35.087 31.875 35.8563V40.1609C31.3395 40.2982 30.8481 40.5766 30.4468 40.978C29.8564 41.5685 29.5312 42.3531 29.5312 43.1875H28.75C27.4577 43.1875 26.4062 44.2389 26.4062 45.5312V50.2188C26.4062 50.6502 26.7561 51 27.1875 51H42.8125C43.2439 51 43.5938 50.6502 43.5938 50.2188V45.5312C43.5938 44.2389 42.5423 43.1875 41.25 43.1875H40.4688C40.4688 41.7341 39.4713 40.5091 38.125 40.1614V35.8602C38.125 35.0884 38.4902 34.3818 39.1022 33.9698C41.7568 32.1813 43.848 29.7063 45.1706 26.7949C49.0284 25.7546 51.4062 22.0197 51.4062 16.9375C51.4062 15.6452 50.3548 14.5938 49.0625 14.5938ZM20.1562 16.9375C20.1562 16.5067 20.5067 16.1562 20.9375 16.1562H23.2812V19.6484C23.2812 21.4293 23.551 23.1732 24.0836 24.8527C21.5974 23.6212 20.1562 20.777 20.1562 16.9375ZM41.25 44.75C41.6808 44.75 42.0312 45.1005 42.0312 45.5312V49.4375H27.9688V45.5312C27.9688 45.1005 28.3192 44.75 28.75 44.75H41.25ZM45.1562 19.6484C45.1562 21.7825 44.7314 23.8591 43.8933 25.8203C42.7011 28.6107 40.7425 30.9806 38.2294 32.6738C37.1856 33.3764 36.5625 34.5676 36.5625 35.8602V40.8438C36.5625 41.2752 36.9123 41.625 37.3438 41.625C38.2053 41.625 38.9062 42.3259 38.9062 43.1875H31.0938C31.0938 42.7705 31.2564 42.3782 31.5516 42.0829C31.8324 41.8021 32.2009 41.6413 32.595 41.6262C32.6152 41.6277 32.6356 41.6285 32.6562 41.6285C33.0876 41.6285 33.4374 41.2752 33.4374 40.8438V35.8563C33.4374 34.5664 32.8147 33.3768 31.7716 32.674C29.2583 30.9807 27.2997 28.6108 26.1073 25.8202C25.2689 23.8596 24.8438 21.7831 24.8438 19.6484V13.3438C24.8438 12.913 25.1942 12.5625 25.625 12.5625H44.375C44.8058 12.5625 45.1562 12.913 45.1562 13.3438V19.6484ZM45.9167 24.8525C46.4491 23.1727 46.7188 21.4288 46.7188 19.6484V16.1562H49.0625C49.4933 16.1562 49.8438 16.5067 49.8438 16.9375C49.8438 20.7768 48.4027 23.6209 45.9167 24.8525Z" fill="white"/>
<path d="M41.1828 20.2312C41.091 19.9484 40.8465 19.7422 40.5521 19.6995L37.1805 19.2102L35.6725 16.1543C35.5408 15.8876 35.2693 15.7188 34.9718 15.7188C34.6744 15.7188 34.4029 15.8876 34.2712 16.1543L32.7632 19.2102L29.3917 19.6995C29.0973 19.7423 28.8529 19.9484 28.7609 20.2312C28.669 20.5141 28.7457 20.8246 28.9586 21.0322L31.3988 23.4103L30.8229 26.7687C30.7726 27.0618 30.8931 27.358 31.1337 27.5328C31.3743 27.7076 31.6933 27.7306 31.9564 27.5923L34.9719 26.0069L37.9881 27.5923C38.2529 27.7315 38.5718 27.7065 38.8108 27.5327C39.0514 27.3579 39.1718 27.0616 39.1215 26.7685L38.545 23.4102L40.985 21.0322C41.1981 20.8246 41.2747 20.5141 41.1828 20.2312ZM37.1602 22.578C36.9761 22.7575 36.8919 23.0162 36.9355 23.2697L37.3137 25.4726L35.3354 24.4327C35.1076 24.313 34.8357 24.313 34.6083 24.4327L32.6306 25.4726L33.0084 23.2695C33.0518 23.016 32.9678 22.7574 32.7836 22.578L31.1833 21.0183L33.3943 20.6973C33.6489 20.6604 33.8689 20.5005 33.9827 20.2699L34.9719 18.2653L35.9611 20.2699C36.075 20.5005 36.295 20.6604 36.5495 20.6973L38.7606 21.0183L37.1602 22.578Z" fill="white"/>
<path d="M35 46.3125H31.875C31.4436 46.3125 31.0938 46.6623 31.0938 47.0938C31.0938 47.5252 31.4436 47.875 31.875 47.875H35C35.4314 47.875 35.7812 47.5252 35.7812 47.0938C35.7812 46.6623 35.4314 46.3125 35 46.3125Z" fill="white"/>
<path d="M47.032 48.6562H47.4676C47.2457 48.6122 47.0965 48.6079 47.032 48.6562Z" fill="white"/>
</svg>
