<svg width="70" height="62" viewBox="0 0 70 62" fill="none" xmlns="http://www.w3.org/2000/svg">
<rect width="70" height="62" fill="#00B2FF"/>
<path d="M51.8913 26.7587C52.6156 26.0527 52.8713 25.0165 52.5588 24.0546C52.2462 23.0926 51.4302 22.4047 50.4293 22.2593L41.677 20.9875C41.5052 20.9626 41.3567 20.8547 41.2798 20.6989L37.3656 12.7681C36.9181 11.861 36.0117 11.2976 35.0002 11.2976C33.9887 11.2976 33.0823 11.861 32.6347 12.7681L28.7206 20.699C28.6436 20.8547 28.4952 20.9626 28.3233 20.9876L19.5711 22.2593C18.5702 22.4047 17.7543 23.0926 17.4416 24.0546C17.129 25.0165 17.3848 26.0527 18.1091 26.7587L24.4424 32.9321C24.5666 33.0533 24.6234 33.2279 24.5941 33.3991L23.099 42.116C22.9281 43.1129 23.3301 44.1014 24.1484 44.696C24.9666 45.2907 26.0313 45.3675 26.9265 44.8969L34.7547 40.7814C34.9084 40.7005 35.092 40.7005 35.2458 40.7814L43.0741 44.8969C43.4634 45.1016 43.8848 45.2028 44.3041 45.2027C44.8486 45.2027 45.3897 45.0321 45.852 44.6959C46.6702 44.1013 47.0724 43.1127 46.9013 42.1159L45.4063 33.399C45.377 33.2278 45.4337 33.0532 45.558 32.932L51.8913 26.7587ZM43.3265 33.7559L44.8216 42.4729C44.8716 42.7646 44.6915 42.931 44.6117 42.9889C44.5319 43.0467 44.318 43.1667 44.0561 43.0289L36.2278 38.9134C35.8435 38.7114 35.422 38.6103 35.0003 38.6103C34.5787 38.6103 34.157 38.7114 33.7728 38.9133L25.9446 43.0288C25.6826 43.1665 25.4688 43.0466 25.389 42.9887C25.3092 42.9308 25.1291 42.7645 25.1791 42.4728L26.6742 33.7559C26.821 32.9 26.5375 32.0272 25.9156 31.421L19.5824 25.2477C19.3704 25.041 19.4184 24.8006 19.4489 24.7068C19.4793 24.613 19.5819 24.3903 19.8748 24.3478L28.6269 23.076C29.4862 22.9511 30.2288 22.4117 30.6131 21.6329L34.5273 13.702C34.6583 13.4366 34.9017 13.4079 35.0004 13.4079C35.0989 13.4079 35.3424 13.4365 35.4734 13.702V13.7021L39.3876 21.633C39.7719 22.4118 40.5144 22.9512 41.3737 23.076L50.1259 24.3478C50.4188 24.3903 50.5213 24.6131 50.5518 24.7069C50.5823 24.8007 50.6303 25.0412 50.4183 25.2478L44.0851 31.4211C43.4632 32.0272 43.1797 32.9 43.3265 33.7559Z" fill="white"/>
<path d="M47.3268 12.7676C46.8552 12.4251 46.1955 12.5296 45.853 13.001L44.7329 14.5426C44.3904 15.014 44.4949 15.6739 44.9663 16.0164C45.1538 16.1524 45.3707 16.218 45.5857 16.218C45.912 16.218 46.2338 16.0671 46.4402 15.7831L47.5602 14.2415C47.9027 13.77 47.7983 13.1101 47.3268 12.7676Z" fill="white"/>
<path d="M25.2625 14.5363L24.1424 12.9947C23.8 12.5235 23.1402 12.4189 22.6686 12.7613C22.1972 13.1038 22.0927 13.7637 22.4352 14.2351L23.5553 15.7767C23.7617 16.061 24.0835 16.2117 24.4099 16.2117C24.6249 16.2117 24.842 16.1462 25.0292 16.0101C25.5006 15.6677 25.6051 15.0078 25.2625 14.5363Z" fill="white"/>
<path d="M18.8713 34.971C18.6912 34.4169 18.096 34.1135 17.5417 34.2936L15.7294 34.8825C15.1751 35.0626 14.8719 35.658 15.052 36.2121C15.1968 36.6582 15.6105 36.9416 16.0552 36.9416C16.1633 36.9416 16.2732 36.9248 16.3816 36.8896L18.1938 36.3007C18.7481 36.1206 19.0513 35.5253 18.8713 34.971Z" fill="white"/>
<path d="M35.0004 46.6864C34.4176 46.6864 33.9452 47.1588 33.9452 47.7416V49.6472C33.9452 50.2299 34.4176 50.7023 35.0004 50.7023C35.5831 50.7023 36.0555 50.2299 36.0555 49.6472V47.7416C36.0555 47.1587 35.5832 46.6864 35.0004 46.6864Z" fill="white"/>
<path d="M54.2706 34.8839L52.4584 34.295C51.9043 34.1151 51.3088 34.4182 51.1288 34.9725C50.9487 35.5268 51.2519 36.1221 51.8062 36.3021L53.6184 36.8911C53.7268 36.9262 53.8366 36.9429 53.9447 36.9429C54.3895 36.9429 54.8032 36.6594 54.9481 36.2135C55.1281 35.6593 54.8249 35.064 54.2706 34.8839Z" fill="white"/>
</svg>
