<svg width="70" height="62" viewBox="0 0 70 62" fill="none" xmlns="http://www.w3.org/2000/svg">
<rect width="70" height="62" fill="#00B2FF"/>
<path d="M44.6667 38.3333V31.6666C44.6631 28.3545 41.9788 25.6702 38.6667 25.6666H28C24.6878 25.6702 22.0036 28.3545 22 31.6666V40.3333H23.3333V31.6666C23.3363 29.0905 25.4238 27.0029 28 27H29.0573L32.862 30.8046C33.1224 31.0647 33.5443 31.0647 33.8047 30.8046L37.6094 27H38.6667C41.2428 27.0029 43.3304 29.0905 43.3333 31.6666V38.3333H44.6667ZM33.3333 29.3906L30.9427 27H35.724L33.3333 29.3906Z" fill="white"/>
<path d="M26.6667 33H28V39H26.6667V33Z" fill="white"/>
<path d="M38.6667 33H40V37.6667H38.6667V33Z" fill="white"/>
<path d="M52.6667 40.3334H44.1647C42.6953 39.529 41.0517 39.0964 39.3766 39.0733C39.3262 39.0687 39.2734 39.0668 39.2266 39.0668C37.501 39.0668 35.8027 39.4994 34.2874 40.3252L29.3333 40.3334C27.8607 40.3334 26.6667 41.5274 26.6667 43C26.666 43.0528 26.6693 43.1055 26.6761 43.1579C26.6859 43.3409 26.7152 43.5219 26.7627 43.6986L23.0046 41.9766L22.944 41.9467L20.6992 40.9213C19.8187 40.516 18.792 40.5876 17.9759 41.1107C17.1595 41.6342 16.666 42.5371 16.6667 43.5066V43.6534C16.6618 44.7325 17.2731 45.7194 18.2412 46.196L26.8613 50.5127C27.5101 50.8327 28.2233 50.9994 28.9466 51H52.6667C53.0348 51 53.3333 50.7015 53.3333 50.3334V41C53.3333 40.6319 53.0348 40.3334 52.6667 40.3334ZM43.3333 49.6667H28.9466C28.4284 49.6657 27.917 49.5463 27.4521 49.3174L18.8359 45C18.3229 44.7478 17.9984 44.2253 18 43.6534V43.5066C18 42.9916 18.262 42.5121 18.696 42.2341C19.1296 41.9561 19.6748 41.9183 20.1426 42.1335L22.3688 43.1501L22.4287 43.1794L27.7214 45.6062C27.8089 45.6462 27.904 45.6667 28 45.6667H35.3333V44.3334H29.3333C28.6211 44.3344 28.0352 43.7725 28.0062 43.0606C28.0052 43.0385 28.0033 43.016 28 42.9942C28.0033 42.2601 28.5993 41.6667 29.3333 41.6667H34.4466C34.5609 41.6667 34.6732 41.6374 34.7728 41.5814L34.9326 41.4913C36.2445 40.7787 37.7126 40.4017 39.2054 40.3939C39.2458 40.4021 39.2868 40.4063 39.3281 40.4066C40.7223 40.42 42.0944 40.7601 43.3333 41.4001V49.6667ZM52 49.6667H44.6667V41.6667H52V49.6667Z" fill="white"/>
<path d="M46 47H47.3333V48.3333H46V47Z" fill="white"/>
<path d="M33.3333 24.3333C36.2777 24.3301 38.6634 21.944 38.6667 19V16.3333C38.6667 13.3877 36.279 11 33.3333 11C30.3877 11 28 13.3877 28 16.3333V19C28.0033 21.944 30.3893 24.3301 33.3333 24.3333ZM29.3333 16.3333C29.3333 14.1243 31.1243 12.3333 33.3333 12.3333C35.5426 12.3333 37.3333 14.1243 37.3333 16.3333V19C37.3333 21.209 35.5426 23 33.3333 23C31.1243 23 29.3333 21.209 29.3333 19V16.3333Z" fill="white"/>
<path d="M32 16.3333C32.0013 15.7686 32.3571 15.2653 32.8893 15.0758L32.444 13.8193C31.3799 14.1976 30.6683 15.2038 30.6667 16.3333V17H32V16.3333Z" fill="white"/>
</svg>
