<svg width="70" height="62" viewBox="0 0 70 62" fill="none" xmlns="http://www.w3.org/2000/svg">
<rect width="70" height="62" fill="#00B2FF"/>
<g clip-path="url(#clip0)">
<path d="M29.1424 22.1399L28.4659 22.3851C27.4218 22.7637 26.6429 23.6769 26.433 24.7692L26.2034 25.972C26.0889 26.5678 26.2449 27.1779 26.6315 27.6458C27.0183 28.1142 27.5886 28.3828 28.1959 28.3828H34.0598C34.6624 28.3828 35.2298 28.1177 35.6166 27.6555C36.003 27.1937 36.1638 26.5891 36.0577 25.9967L35.8436 24.8002C35.6452 23.6908 34.8638 22.7626 33.8039 22.378L33.0867 22.1181V21.0611C33.0867 21.0314 33.0838 21.0025 33.0795 20.974C33.6027 20.4413 33.9024 19.715 33.9024 18.9719V17.3969C33.9024 15.8596 32.6516 14.6089 31.1142 14.6089C29.5768 14.6089 28.3258 15.8596 28.3258 17.3969V19.0209C28.3258 19.7848 28.6408 20.4822 29.1473 20.9887C29.1443 21.0125 29.1424 21.0365 29.1424 21.061V22.1399ZM34.6898 25.0065L34.9039 26.2031C34.9488 26.4532 34.8809 26.7084 34.7177 26.9034C34.5542 27.0987 34.3144 27.2108 34.0596 27.2108H28.1958C27.9391 27.2108 27.6982 27.0974 27.5348 26.8995C27.3717 26.702 27.3058 26.4446 27.3542 26.1925L27.5838 24.9897C27.716 24.3012 28.2071 23.7254 28.865 23.4869L29.3081 23.3263C29.3192 23.3377 29.3304 23.3492 29.3424 23.3597C29.8474 23.8012 30.4807 24.022 31.1145 24.0219C31.7474 24.0219 32.3806 23.8016 32.8856 23.361C32.9038 23.3451 32.9206 23.328 32.9365 23.3102L33.4039 23.4797C34.0722 23.722 34.5648 24.307 34.6898 25.0065ZM29.4977 17.3969C29.4977 16.5058 30.2227 15.7808 31.114 15.7808C31.8662 15.7808 32.4982 16.2979 32.6777 16.9948C32.6023 17.0316 32.5251 17.0664 32.4459 17.098C31.7255 17.3865 31.1435 17.3482 30.9772 17.2316C30.7122 17.0458 30.3469 17.1099 30.161 17.3749C29.9752 17.6399 30.0394 18.0052 30.3043 18.1911C30.5905 18.3918 30.9789 18.4921 31.4222 18.4921C31.8249 18.4921 32.273 18.4084 32.7304 18.2429V18.9717C32.7304 19.4196 32.5452 19.8582 32.2221 20.175C32.0726 20.3217 31.9013 20.4354 31.7173 20.5138C31.7044 20.5187 31.6917 20.524 31.6793 20.5298C31.4903 20.6046 31.2884 20.6422 31.0821 20.6368C30.2084 20.62 29.4977 19.8951 29.4977 19.0208V17.3969ZM31.0596 21.8086C31.0775 21.8089 31.0952 21.809 31.1131 21.809C31.3881 21.809 31.6574 21.7677 31.9148 21.6884V22.6258C31.4264 22.9269 30.8021 22.9268 30.3144 22.6254V21.6901C30.5514 21.7619 30.8012 21.8036 31.0596 21.8086Z" fill="white"/>
<path d="M21.8956 38.4143H40.1432C40.4669 38.4143 40.7292 38.152 40.7292 37.8284C40.7292 37.5047 40.4669 37.2424 40.1432 37.2424H21.8956C21.5719 37.2424 21.3096 37.5047 21.3096 37.8284C21.3096 38.152 21.5719 38.4143 21.8956 38.4143Z" fill="white"/>
<path d="M21.8956 41.5739H40.1432C40.4669 41.5739 40.7292 41.3116 40.7292 40.9879C40.7292 40.6642 40.4669 40.402 40.1432 40.402H21.8956C21.5719 40.402 21.3096 40.6642 21.3096 40.9879C21.3096 41.3116 21.5719 41.5739 21.8956 41.5739Z" fill="white"/>
<path d="M21.8956 44.7332H40.1432C40.4669 44.7332 40.7292 44.4709 40.7292 44.1472C40.7292 43.8235 40.4669 43.5613 40.1432 43.5613H21.8956C21.5719 43.5613 21.3096 43.8235 21.3096 44.1472C21.3096 44.4709 21.5719 44.7332 21.8956 44.7332Z" fill="white"/>
<path d="M21.8956 47.8925H40.1432C40.4669 47.8925 40.7292 47.6302 40.7292 47.3065C40.7292 46.9828 40.4669 46.7206 40.1432 46.7206H21.8956C21.5719 46.7206 21.3096 46.9828 21.3096 47.3065C21.3096 47.6302 21.5719 47.8925 21.8956 47.8925Z" fill="white"/>
<path d="M21.3096 31.5096C21.3096 31.8333 21.5719 32.0956 21.8956 32.0956H40.1432C40.4669 32.0956 40.7292 31.8333 40.7292 31.5096C40.7292 31.186 40.4669 30.9237 40.1432 30.9237H21.8956C21.5719 30.9237 21.3096 31.186 21.3096 31.5096Z" fill="white"/>
<path d="M21.8956 35.255H40.1432C40.4669 35.255 40.7292 34.9927 40.7292 34.6691C40.7292 34.3454 40.4669 34.0831 40.1432 34.0831H21.8956C21.5719 34.0831 21.3096 34.3454 21.3096 34.6691C21.3096 34.9927 21.5719 35.255 21.8956 35.255Z" fill="white"/>
<path d="M19.7319 38.4166C20.0568 38.4166 20.3201 38.1533 20.3201 37.8285C20.3201 37.5037 20.0568 37.2404 19.7319 37.2404C19.4071 37.2404 19.1438 37.5036 19.1438 37.8285C19.1438 38.1533 19.4072 38.4166 19.7319 38.4166Z" fill="white"/>
<path d="M19.7319 32.0979C20.0568 32.0979 20.3201 31.8346 20.3201 31.5098C20.3201 31.1849 20.0568 30.9216 19.7319 30.9216C19.4071 30.9216 19.1438 31.1849 19.1438 31.5098C19.1438 31.8346 19.4072 32.0979 19.7319 32.0979Z" fill="white"/>
<path d="M19.7319 35.2572C20.0568 35.2572 20.3201 34.9939 20.3201 34.6691C20.3201 34.3442 20.0568 34.0809 19.7319 34.0809C19.4071 34.0809 19.1438 34.3442 19.1438 34.6691C19.1438 34.9939 19.4072 35.2572 19.7319 35.2572Z" fill="white"/>
<path d="M19.7319 41.5759C20.0568 41.5759 20.3201 41.3126 20.3201 40.9878C20.3201 40.6629 20.0568 40.3997 19.7319 40.3997C19.4071 40.3997 19.1438 40.6629 19.1438 40.9878C19.1438 41.3126 19.4072 41.5759 19.7319 41.5759Z" fill="white"/>
<path d="M19.7319 44.7353C20.0568 44.7353 20.3201 44.4721 20.3201 44.1472C20.3201 43.8224 20.0568 43.5591 19.7319 43.5591C19.4071 43.5591 19.1438 43.8224 19.1438 44.1472C19.1438 44.472 19.4072 44.7353 19.7319 44.7353Z" fill="white"/>
<path d="M19.7319 47.8948C20.0568 47.8948 20.3201 47.6315 20.3201 47.3066C20.3201 46.9819 20.0568 46.7185 19.7319 46.7185C19.4071 46.7185 19.1438 46.9818 19.1438 47.3066C19.1438 47.6314 19.4072 47.8948 19.7319 47.8948Z" fill="white"/>
<path d="M52.9398 20.2282C52.7034 19.929 52.48 19.6462 52.3719 19.3858C52.2554 19.1046 52.2094 18.7331 52.1608 18.3397C52.0756 17.6505 51.979 16.8693 51.4339 16.3242C50.8887 15.7791 50.1075 15.6826 49.4183 15.5973C49.0247 15.5487 48.6531 15.5028 48.3719 15.3863C48.1114 15.2782 47.8287 15.0549 47.5294 14.8184C47.1176 14.493 46.6647 14.1358 46.1293 13.9737V13.7964C46.1293 12.2545 44.8747 11 43.3326 11H18.9229C17.3808 11 16.1262 12.2545 16.1262 13.7965V16.0581C16.1262 16.3818 16.3885 16.6441 16.7122 16.6441C17.0358 16.6441 17.2981 16.3818 17.2981 16.0581V13.7965C17.2981 12.9006 18.027 12.1719 18.9229 12.1719H43.3326C44.2286 12.1719 44.9575 12.9006 44.9575 13.7965V13.9738C44.4222 14.136 43.9694 14.4931 43.5576 14.8185C43.2583 15.0549 42.9757 15.2783 42.7152 15.3863C42.434 15.5028 42.0624 15.5487 41.6689 15.5974C40.9797 15.6826 40.1985 15.7791 39.6533 16.3242C39.108 16.8694 39.0115 17.6505 38.9262 18.3398C38.8776 18.7331 38.8317 19.1047 38.7151 19.3859C38.6071 19.6463 38.3837 19.9291 38.1472 20.2283C37.7094 20.7823 37.2133 21.4102 37.2133 22.214C37.2133 23.0178 37.7095 23.6457 38.1472 24.1997C38.3836 24.4989 38.6071 24.7816 38.7151 25.0421C38.8317 25.3233 38.8776 25.6948 38.9262 26.0883C39.0115 26.7774 39.108 27.5586 39.6532 28.1037C40.1983 28.6488 40.9796 28.7453 41.6688 28.8305C41.8743 28.8559 42.0734 28.8809 42.2572 28.9152V37.772C42.2572 38.1191 42.451 38.4291 42.7629 38.581C43.0748 38.7331 43.4383 38.6945 43.7118 38.4804L44.9574 37.5052V48.2036C44.9574 49.0995 44.2285 49.8282 43.3326 49.8282H18.9229C18.027 49.8282 17.2981 49.0995 17.2981 48.2036V18.6384C17.2981 18.3147 17.0358 18.0524 16.7122 18.0524C16.3885 18.0524 16.1262 18.3147 16.1262 18.6384V48.2035C16.1262 49.7455 17.3808 51 18.9229 51H43.3326C44.8747 51 46.1293 49.7455 46.1293 48.2035V37.5051L47.3749 38.4802C47.5375 38.6076 47.732 38.6729 47.9287 38.6729C48.0628 38.6729 48.1978 38.6425 48.3243 38.5809C48.6364 38.429 48.8303 38.119 48.8303 37.772V31.2331C48.8303 30.9095 48.568 30.6472 48.2443 30.6472C47.9207 30.6472 47.6584 30.9095 47.6584 31.2331V37.214L46.1008 35.9945C45.9434 35.8699 45.7454 35.8013 45.5433 35.8013C45.3412 35.8013 45.1433 35.8699 44.9883 35.9925L43.429 37.2134V29.5083C43.4715 29.5416 43.5143 29.5752 43.5575 29.6094C44.1116 30.0472 44.7396 30.5432 45.5435 30.5432C46.3473 30.5432 46.9753 30.0471 47.5293 29.6095C47.8286 29.373 48.1114 29.1496 48.3718 29.0416C48.653 28.9251 49.0247 28.8791 49.4182 28.8305C50.1074 28.7453 50.8886 28.6488 51.4339 28.1037C51.979 27.5585 52.0755 26.7773 52.1608 26.0882C52.2094 25.6948 52.2554 25.3232 52.3719 25.042C52.48 24.7816 52.7033 24.4988 52.9398 24.1996C53.3776 23.6456 53.8737 23.0177 53.8737 22.2139C53.8737 21.4101 53.3775 20.7822 52.9398 20.2282ZM52.0204 23.473C51.7447 23.8219 51.4597 24.1825 51.2895 24.5931C51.1119 25.0213 51.0539 25.4905 50.9978 25.9444C50.9297 26.4948 50.8655 27.0148 50.6054 27.2749C50.3451 27.5351 49.8251 27.5993 49.2746 27.6673C48.8207 27.7234 48.3515 27.7814 47.9232 27.959C47.5125 28.1292 47.1519 28.4141 46.8031 28.6898C46.3594 29.0402 45.9404 29.3713 45.5436 29.3713C45.1468 29.3713 44.7279 29.0402 44.2842 28.6898C43.9354 28.4142 43.5747 28.1292 43.1641 27.959C43.1358 27.9473 43.0377 27.9099 43.0165 27.9034C42.6293 27.7687 42.215 27.717 41.8126 27.6673C41.2621 27.5993 40.7421 27.535 40.4818 27.2748C40.2218 27.0148 40.1575 26.4948 40.0894 25.9445C40.0333 25.4905 39.9754 25.0214 39.7978 24.5931C39.6275 24.1825 39.3425 23.8219 39.0669 23.473C38.7165 23.0295 38.3854 22.6105 38.3854 22.2139C38.3854 21.8173 38.7165 21.3984 39.0669 20.9548C39.3425 20.6059 39.6275 20.2453 39.7978 19.8347C39.9754 19.4066 40.0334 18.9373 40.0894 18.4834C40.1575 17.933 40.2218 17.413 40.4819 17.1529C40.7422 16.8927 41.2622 16.8285 41.8127 16.7605C42.2666 16.7044 42.7358 16.6464 43.1641 16.4688C43.5747 16.2986 43.9354 16.0137 44.2842 15.738C44.7269 15.3883 45.1452 15.058 45.5413 15.0567C45.542 15.0567 45.5428 15.0568 45.5435 15.0568C45.5443 15.0568 45.545 15.0567 45.5458 15.0567C45.942 15.0579 46.3603 15.3883 46.8031 15.738C47.1519 16.0136 47.5125 16.2986 47.9232 16.4688C48.3514 16.6464 48.8208 16.7045 49.2747 16.7605C49.8252 16.8285 50.3452 16.8928 50.6054 17.153C50.8655 17.4131 50.9298 17.933 50.9979 18.4834C51.054 18.9373 51.1119 19.4065 51.2895 19.8347C51.4598 20.2453 51.7447 20.6059 52.0204 20.9548C52.3708 21.3984 52.7018 21.8173 52.7018 22.2139C52.7018 22.6105 52.3708 23.0295 52.0204 23.473Z" fill="white"/>
<path d="M49.3054 20.3518L47.3115 19.7877L46.1586 18.0658C46.0208 17.8602 45.791 17.7375 45.5436 17.7375C45.2962 17.7375 45.0662 17.8603 44.9286 18.0658L43.7757 19.7877L41.7816 20.3519C41.5435 20.4193 41.3557 20.6002 41.2793 20.8355C41.2029 21.0708 41.2487 21.3275 41.4016 21.5217L42.6831 23.15L42.6036 25.2201C42.594 25.4675 42.7077 25.702 42.908 25.8475C43.0365 25.9409 43.1887 25.9892 43.3427 25.9892C43.4288 25.9892 43.5154 25.9741 43.5985 25.9435L45.5434 25.228L47.4882 25.9434C47.7205 26.029 47.9785 25.9931 48.1787 25.8477C48.379 25.7023 48.4929 25.4679 48.4834 25.2204L48.4038 23.15L49.6854 21.5216C49.8383 21.3272 49.8841 21.0707 49.8076 20.8354C49.7314 20.6 49.5436 20.4193 49.3054 20.3518ZM47.3845 22.5505C47.2762 22.6883 47.2202 22.8607 47.2269 23.0364L47.2876 24.6211L45.7991 24.0735C45.6342 24.0128 45.4526 24.0129 45.288 24.0734L43.7993 24.6211L43.8601 23.0358C43.8667 22.8608 43.8106 22.6884 43.7021 22.5501L42.7213 21.3039L44.2478 20.8721C44.4166 20.8242 44.5634 20.7175 44.661 20.5717L45.5434 19.2537L46.4258 20.5715C46.5234 20.7174 46.6702 20.8241 46.8394 20.8722L48.3655 21.3039L47.3845 22.5505Z" fill="white"/>
</g>
<defs>
<clipPath id="clip0">
<rect width="40" height="40" fill="white" transform="translate(15 11)"/>
</clipPath>
</defs>
</svg>
