<svg width="30" height="30" viewBox="0 0 30 30" fill="none" xmlns="http://www.w3.org/2000/svg">
<g clip-path="url(#clip0)">
<path d="M27.8364 0H2.16362C0.968628 0 0 0.968628 0 2.16362V27.8364C0 29.0314 0.968628 30 2.16362 30H16.0254V18.3984H12.1289V13.8574H16.0254V10.5155C16.0254 6.64009 18.3913 4.53072 21.8484 4.53072C23.5041 4.53072 24.9271 4.65408 25.3418 4.70924V8.75977H22.958C21.077 8.75977 20.7129 9.65355 20.7129 10.9653V13.8574H25.21L24.624 18.3984H20.7129V30H27.8364C29.0314 30 30 29.0314 30 27.8364V2.16362C30 0.968628 29.0314 0 27.8364 0V0Z" fill="white"/>
</g>
<defs>
<clipPath id="clip0">
<rect width="30" height="30" fill="white"/>
</clipPath>
</defs>
</svg>
