<svg width="30" height="30" viewBox="0 0 30 30" fill="none" xmlns="http://www.w3.org/2000/svg">
<path d="M20.8178 9.86788L9.81385 16.6927C9.62012 16.8128 9.53197 17.0488 9.59958 17.2665L11.0756 22.0228C11.1067 22.1227 11.2523 22.109 11.264 22.005L11.6227 18.8157C11.6366 18.6925 11.6957 18.5788 11.7886 18.4966L21.107 10.2565C21.33 10.0592 21.0709 9.71088 20.8178 9.86788Z" fill="white"/>
<path d="M0 0V30H30V0H0ZM25.007 7.79526L21.5819 24.1707C21.4211 24.9391 20.5199 25.2843 19.887 24.8197L14.7156 21.0237L12.0799 23.7148C11.6173 24.1872 10.8182 23.996 10.6195 23.3654L8.71698 17.3286L3.61917 15.8232C2.95036 15.6257 2.91093 14.6933 3.56072 14.44L23.6221 6.62233C24.3857 6.32478 25.1748 6.99307 25.007 7.79526Z" fill="white"/>
</svg>
